<?xml version="1.0" encoding="UTF-8"?>
<!DOCTYPE svg PUBLIC "-//W3C//DTD SVG 1.1//EN" "http://www.w3.org/Graphics/SVG/1.1/DTD/svg11.dtd">
<svg xmlns="http://www.w3.org/2000/svg" version="1.1" width="513px" height="513px" style="shape-rendering:geometricPrecision; text-rendering:geometricPrecision; image-rendering:optimizeQuality; fill-rule:evenodd; clip-rule:evenodd" xmlns:xlink="http://www.w3.org/1999/xlink">
<g><path style="opacity:0.998" fill="#000000" d="M 235.5,-0.5 C 249.167,-0.5 262.833,-0.5 276.5,-0.5C 366.898,9.45505 435.065,53.4551 481,131.5C 498.342,164.226 508.842,198.892 512.5,235.5C 512.5,249.167 512.5,262.833 512.5,276.5C 502.545,366.898 458.545,435.065 380.5,481C 347.774,498.342 313.108,508.842 276.5,512.5C 262.833,512.5 249.167,512.5 235.5,512.5C 145.102,502.545 76.9352,458.545 31,380.5C 13.6582,347.774 3.15815,313.108 -0.5,276.5C -0.5,262.833 -0.5,249.167 -0.5,235.5C 9.45505,145.102 53.4551,76.9352 131.5,31C 164.226,13.6582 198.892,3.15815 235.5,-0.5 Z"/></g>
<g><path style="opacity:1" fill="#979797" d="M 111.5,216.5 C 106.047,216.365 100.714,217.032 95.5,218.5C 100.598,215.591 105.931,214.925 111.5,216.5 Z"/></g>
<g><path style="opacity:1" fill="#f6faf8" d="M 111.5,216.5 C 120.523,218.199 126.856,223.199 130.5,231.5C 115.167,231.5 99.8333,231.5 84.5,231.5C 84.5,235.5 84.5,239.5 84.5,243.5C 101.167,243.5 117.833,243.5 134.5,243.5C 133.824,253.182 130.157,261.516 123.5,268.5C 110.5,268.5 97.5,268.5 84.5,268.5C 84.5,272.5 84.5,276.5 84.5,280.5C 87.8333,280.5 91.1667,280.5 94.5,280.5C 89.3781,283.225 84.0447,285.725 78.5,288C 77.365,288.749 76.365,288.583 75.5,287.5C 68.9313,270.627 62.2646,253.794 55.5,237C 55.6448,236.228 55.9781,235.561 56.5,235C 69.5214,229.488 82.5214,223.988 95.5,218.5C 100.714,217.032 106.047,216.365 111.5,216.5 Z"/></g>
<g><path style="opacity:1" fill="#11cd6c" d="M 130.5,231.5 C 133.5,231.5 136.5,231.5 139.5,231.5C 139.5,235.5 139.5,239.5 139.5,243.5C 137.833,243.5 136.167,243.5 134.5,243.5C 117.833,243.5 101.167,243.5 84.5,243.5C 84.5,239.5 84.5,235.5 84.5,231.5C 99.8333,231.5 115.167,231.5 130.5,231.5 Z"/></g>
<g><path style="opacity:1" fill="#636363" d="M 225.5,264.5 C 226.167,267.5 226.833,270.5 227.5,273.5C 227.217,274.289 226.717,274.956 226,275.5C 225.501,271.848 225.335,268.182 225.5,264.5 Z"/></g>
<g><path style="opacity:1" fill="#d8d8d8" d="M 410.5,279.5 C 410.5,278.5 410.5,277.5 410.5,276.5C 412.099,276.768 413.432,276.434 414.5,275.5C 416.766,273.807 417.1,271.64 415.5,269C 412.258,268.014 409.592,268.848 407.5,271.5C 405.717,270.652 405.217,269.319 406,267.5C 411.246,264.602 416.246,264.936 421,268.5C 422.075,272.067 421.242,275.067 418.5,277.5C 424.797,285.289 422.797,289.955 412.5,291.5C 407.801,292.012 405.468,290.012 405.5,285.5C 407.826,286.151 410.159,286.818 412.5,287.5C 416.609,287.486 418.109,285.486 417,281.5C 414.723,280.883 412.556,280.216 410.5,279.5 Z"/></g>
<g><path style="opacity:1" fill="#dddddd" d="M 432.5,270.5 C 429.81,272.259 429.144,274.593 430.5,277.5C 432.943,275.945 435.61,275.278 438.5,275.5C 442.323,276.5 443.99,279 443.5,283C 443.167,284.5 442.833,286 442.5,287.5C 441.145,288.188 440.145,289.188 439.5,290.5C 435.556,290.887 431.889,290.22 428.5,288.5C 424.686,282.013 424.519,275.346 428,268.5C 428.903,267.299 430.069,266.465 431.5,266C 435.537,265.393 439.537,265.56 443.5,266.5C 443.5,267.833 443.5,269.167 443.5,270.5C 439.672,269.502 436.006,269.502 432.5,270.5 Z"/></g>
<g><path style="opacity:1" fill="#dfdfdf" d="M 450.5,265.5 C 455.447,264.628 459.613,265.961 463,269.5C 464.141,276.084 463.474,282.417 461,288.5C 455.131,293.188 450.464,292.188 447,285.5C 446.333,280.5 446.333,275.5 447,270.5C 447.997,268.677 449.164,267.01 450.5,265.5 Z"/></g>
<g><path style="opacity:1" fill="#c4c4c4" d="M 358.5,265.5 C 359.833,265.5 361.167,265.5 362.5,265.5C 362.5,266.5 362.5,267.5 362.5,268.5C 361.167,268.5 359.833,268.5 358.5,268.5C 358.5,267.5 358.5,266.5 358.5,265.5 Z"/></g>
<g><path style="opacity:1" fill="#0dc969" d="M 123.5,268.5 C 144.208,264.756 158.708,272.423 167,291.5C 170.38,307.168 165.88,320.001 153.5,330C 149.658,332.002 145.658,333.502 141.5,334.5C 122.5,334.5 103.5,334.5 84.5,334.5C 84.5,330.833 84.5,327.167 84.5,323.5C 103.008,323.83 121.341,323.497 139.5,322.5C 154.101,318.055 159.601,308.389 156,293.5C 153.014,287.18 148.181,283.013 141.5,281C 125.837,280.5 110.17,280.333 94.5,280.5C 91.1667,280.5 87.8333,280.5 84.5,280.5C 84.5,276.5 84.5,272.5 84.5,268.5C 97.5,268.5 110.5,268.5 123.5,268.5 Z"/></g>
<g><path style="opacity:1" fill="#171717" d="M 452.5,269.5 C 458.25,268.647 460.583,271.147 459.5,277C 460.407,281.68 458.907,285.18 455,287.5C 453.395,286.899 452.062,285.899 451,284.5C 449.955,279.215 450.455,274.215 452.5,269.5 Z"/></g>
<g><path style="opacity:1" fill="#b2b2b2" d="M 257.5,277.5 C 256.883,277.389 256.383,277.056 256,276.5C 255.51,277.793 255.343,279.127 255.5,280.5C 252.167,280.5 248.833,280.5 245.5,280.5C 245.263,279.209 245.596,278.209 246.5,277.5C 248.635,279.369 251.302,280.036 254.5,279.5C 254.67,278.178 254.337,277.011 253.5,276C 251.527,275.505 249.527,275.338 247.5,275.5C 247.158,274.662 246.492,274.328 245.5,274.5C 247.795,272.615 250.462,272.115 253.5,273C 255.751,273.748 257.084,275.248 257.5,277.5 Z"/></g>
<g><path style="opacity:1" fill="#c6c6c6" d="M 313.5,272.5 C 315.857,272.337 318.19,272.503 320.5,273C 322.405,273.826 322.739,274.993 321.5,276.5C 313.02,274.494 310.187,277.828 313,286.5C 313.956,287.894 315.289,288.561 317,288.5C 319.137,287.923 321.304,287.59 323.5,287.5C 322.981,290.775 320.981,292.108 317.5,291.5C 313.467,291.314 310.634,289.314 309,285.5C 307.675,280.157 309.175,275.824 313.5,272.5 Z"/></g>
<g><path style="opacity:1" fill="#757575" d="M 330.5,286.5 C 329.834,282.316 329.167,277.982 328.5,273.5C 327.507,278.12 327.173,282.786 327.5,287.5C 326.513,282.695 326.179,277.695 326.5,272.5C 327.833,272.5 329.167,272.5 330.5,272.5C 330.5,277.167 330.5,281.833 330.5,286.5 Z"/></g>
<g><path style="opacity:1" fill="#d9d9d9" d="M 349.5,290.5 C 348.186,288.085 347.519,285.252 347.5,282C 347.667,279.167 347.833,276.333 348,273.5C 349.292,274.791 350.458,274.791 351.5,273.5C 352.919,272.549 354.585,272.216 356.5,272.5C 356.5,273.5 356.5,274.5 356.5,275.5C 353.956,275.104 351.789,275.771 350,277.5C 349.501,281.821 349.334,286.154 349.5,290.5 Z"/></g>
<g><path style="opacity:1" fill="#686868" d="M 361.5,290.5 C 360.833,267.833 360.167,267.833 359.5,290.5C 358.51,284.69 358.177,278.69 358.5,272.5C 359.833,272.5 361.167,272.5 362.5,272.5C 362.823,278.69 362.49,284.69 361.5,290.5 Z"/></g>
<g><path style="opacity:1" fill="#ededed" d="M 361.5,290.5 C 360.833,290.5 360.167,290.5 359.5,290.5C 360.167,267.833 360.833,267.833 361.5,290.5 Z"/></g>
<g><path style="opacity:1" fill="#909090" d="M 432.5,270.5 C 431.782,272.137 431.616,273.803 432,275.5C 434.274,274.189 436.44,274.189 438.5,275.5C 435.61,275.278 432.943,275.945 430.5,277.5C 429.144,274.593 429.81,272.259 432.5,270.5 Z"/></g>
<g><path style="opacity:1" fill="#b7b7b7" d="M 305.5,277.5 C 304.883,277.389 304.383,277.056 304,276.5C 303.51,277.793 303.343,279.127 303.5,280.5C 300.167,280.5 296.833,280.5 293.5,280.5C 293.657,279.127 293.49,277.793 293,276.5C 292.617,277.056 292.117,277.389 291.5,277.5C 292.512,274.147 294.846,272.48 298.5,272.5C 300.791,272.622 302.791,273.455 304.5,275C 305.252,275.671 305.586,276.504 305.5,277.5 Z"/></g>
<g><path style="opacity:1" fill="#5d5d5d" d="M 414.5,275.5 C 413.432,276.434 412.099,276.768 410.5,276.5C 410.5,277.5 410.5,278.5 410.5,279.5C 409.566,278.432 409.232,277.099 409.5,275.5C 411.167,275.5 412.833,275.5 414.5,275.5 Z"/></g>
<g><path style="opacity:1" fill="#0e0e0e" d="M 247.5,275.5 C 249.527,275.338 251.527,275.505 253.5,276C 254.337,277.011 254.67,278.178 254.5,279.5C 251.302,280.036 248.635,279.369 246.5,277.5C 246.833,276.833 247.167,276.167 247.5,275.5 Z"/></g>
<g><path style="opacity:1" fill="#d2d2d2" d="M 262.5,290.5 C 261.883,284.402 262.55,278.735 264.5,273.5C 265.053,275.657 266.053,275.49 267.5,273C 268.793,272.51 270.127,272.343 271.5,272.5C 271.5,273.5 271.5,274.5 271.5,275.5C 269.278,275.178 267.444,275.845 266,277.5C 265.667,281.833 265.333,286.167 265,290.5C 264.023,291.774 263.189,291.774 262.5,290.5 Z"/></g>
<g><path style="opacity:1" fill="#0e0e0e" d="M 295.5,275.5 C 297.527,275.338 299.527,275.505 301.5,276C 302.337,277.011 302.67,278.178 302.5,279.5C 299.833,279.5 297.167,279.5 294.5,279.5C 294.433,278.041 294.766,276.708 295.5,275.5 Z"/></g>
<g><path style="opacity:1" fill="#7a7a7a" d="M 368.5,268.5 C 369.209,267.596 370.209,267.263 371.5,267.5C 371.5,269.167 371.5,270.833 371.5,272.5C 374.713,272.19 377.713,272.523 380.5,273.5C 379.167,273.5 378.5,274.167 378.5,275.5C 376.374,275.15 374.041,275.15 371.5,275.5C 371.5,279.5 371.5,283.5 371.5,287.5C 370.515,283.366 370.182,279.032 370.5,274.5C 377.167,274.167 377.167,273.833 370.5,273.5C 370.923,271.219 370.256,269.552 368.5,268.5 Z"/></g>
<g><path style="opacity:1" fill="#525252" d="M 264.5,273.5 C 262.55,278.735 261.883,284.402 262.5,290.5C 261.51,284.69 261.177,278.69 261.5,272.5C 262.791,272.263 263.791,272.596 264.5,273.5 Z"/></g>
<g><path style="opacity:1" fill="#9e9e9e" d="M 351.5,273.5 C 350.458,274.791 349.292,274.791 348,273.5C 347.833,276.333 347.667,279.167 347.5,282C 347.519,285.252 348.186,288.085 349.5,290.5C 348.791,291.404 347.791,291.737 346.5,291.5C 346.5,285.167 346.5,278.833 346.5,272.5C 348.216,272.629 349.883,272.962 351.5,273.5 Z"/></g>
<g><path style="opacity:1" fill="#d2d2d2" d="M 202.5,272.5 C 203.822,272.33 204.989,272.663 206,273.5C 207.576,277.65 209.409,281.65 211.5,285.5C 213.591,281.65 215.424,277.65 217,273.5C 218.156,272.007 218.99,272.174 219.5,274C 216.723,281.663 213.557,289.163 210,296.5C 208.308,298.245 206.475,298.578 204.5,297.5C 207.299,296.026 208.966,293.692 209.5,290.5C 207.554,284.324 205.22,278.324 202.5,272.5 Z"/></g>
<g><path style="opacity:1" fill="#d8d8d8" d="M 225.5,264.5 C 225.335,268.182 225.501,271.848 226,275.5C 226.717,274.956 227.217,274.289 227.5,273.5C 238.281,272.137 241.781,276.803 238,287.5C 235.73,290.775 232.563,292.109 228.5,291.5C 228.25,290.078 227.417,289.078 226,288.5C 225.583,289.756 224.75,290.423 223.5,290.5C 222.864,281.435 223.53,272.769 225.5,264.5 Z"/></g>
<g><path style="opacity:1" fill="#0e0e0e" d="M 228.5,275.5 C 235.182,274.825 237.682,277.825 236,284.5C 233.805,288.872 230.805,289.539 227,286.5C 226.013,282.525 226.513,278.859 228.5,275.5 Z"/></g>
<g><path style="opacity:1" fill="#161616" d="M 432.5,278.5 C 434.467,278.261 436.301,278.594 438,279.5C 438.769,282.099 438.602,284.599 437.5,287C 435.559,287.743 433.726,287.576 432,286.5C 431.278,283.739 431.445,281.073 432.5,278.5 Z"/></g>
<g><path style="opacity:1" fill="#dadada" d="M 245.5,274.5 C 246.492,274.328 247.158,274.662 247.5,275.5C 247.167,276.167 246.833,276.833 246.5,277.5C 245.596,278.209 245.263,279.209 245.5,280.5C 248.833,280.5 252.167,280.5 255.5,280.5C 255.343,279.127 255.51,277.793 256,276.5C 256.383,277.056 256.883,277.389 257.5,277.5C 257.5,278.833 257.5,280.167 257.5,281.5C 253.5,281.5 249.5,281.5 245.5,281.5C 245.232,283.099 245.566,284.432 246.5,285.5C 246.953,286.458 247.619,287.292 248.5,288C 251.614,288.123 254.614,288.29 257.5,288.5C 256.271,290.918 254.271,291.918 251.5,291.5C 243.88,289.949 241.047,285.282 243,277.5C 243.852,276.429 244.685,275.429 245.5,274.5 Z"/></g>
<g><path style="opacity:1" fill="#696969" d="M 257.5,281.5 C 254.038,282.482 250.371,282.815 246.5,282.5C 246.5,283.5 246.5,284.5 246.5,285.5C 245.566,284.432 245.232,283.099 245.5,281.5C 249.5,281.5 253.5,281.5 257.5,281.5 Z"/></g>
<g><path style="opacity:1" fill="#686868" d="M 305.5,281.5 C 302.038,282.482 298.371,282.815 294.5,282.5C 294.5,283.833 294.5,285.167 294.5,286.5C 293.549,285.081 293.216,283.415 293.5,281.5C 297.5,281.5 301.5,281.5 305.5,281.5 Z"/></g>
<g><path style="opacity:1" fill="#cfcfcf" d="M 305.5,277.5 C 305.5,278.833 305.5,280.167 305.5,281.5C 301.5,281.5 297.5,281.5 293.5,281.5C 293.216,283.415 293.549,285.081 294.5,286.5C 295.312,287.993 296.645,288.66 298.5,288.5C 300.512,288.16 302.512,287.827 304.5,287.5C 304.443,288.609 304.11,289.609 303.5,290.5C 300.435,291.818 297.269,291.818 294,290.5C 290.516,286.593 289.682,282.259 291.5,277.5C 292.117,277.389 292.617,277.056 293,276.5C 293.49,277.793 293.657,279.127 293.5,280.5C 296.833,280.5 300.167,280.5 303.5,280.5C 303.343,279.127 303.51,277.793 304,276.5C 304.383,277.056 304.883,277.389 305.5,277.5 Z"/></g>
<g><path style="opacity:1" fill="#c6c6c6" d="M 378.5,275.5 C 378.5,274.167 379.167,273.5 380.5,273.5C 381.882,278.035 383.716,282.369 386,286.5C 387.667,282.167 389.333,277.833 391,273.5C 392.011,272.663 393.178,272.33 394.5,272.5C 391.37,280.105 388.203,287.771 385,295.5C 382.934,298.132 380.434,298.799 377.5,297.5C 380.741,296.4 382.741,294.233 383.5,291C 381.727,285.848 380.06,280.681 378.5,275.5 Z"/></g>
<g><path style="opacity:1" fill="#c6c6c6" d="M 368.5,268.5 C 370.256,269.552 370.923,271.219 370.5,273.5C 377.167,273.833 377.167,274.167 370.5,274.5C 370.182,279.032 370.515,283.366 371.5,287.5C 372.568,288.434 373.901,288.768 375.5,288.5C 375.5,289.5 375.5,290.5 375.5,291.5C 372.956,291.896 370.789,291.229 369,289.5C 367.621,284.964 367.121,280.297 367.5,275.5C 366.5,275.5 365.5,275.5 364.5,275.5C 364.5,274.5 364.5,273.5 364.5,272.5C 365.5,272.5 366.5,272.5 367.5,272.5C 367.232,270.901 367.566,269.568 368.5,268.5 Z"/></g>
<g><path style="opacity:1" fill="#c8c8c8" d="M 276.5,272.5 C 279.187,272.336 281.854,272.503 284.5,273C 285.357,273.689 286.023,274.522 286.5,275.5C 283.667,275.582 280.667,275.748 277.5,276C 276.167,277.333 276.167,278.667 277.5,280C 285.827,280.275 288.16,283.942 284.5,291C 281.5,291.667 278.5,291.667 275.5,291C 274.643,290.311 273.977,289.478 273.5,288.5C 276.717,288.342 280.05,288.175 283.5,288C 283.957,287.586 284.291,287.086 284.5,286.5C 280.96,284.378 277.46,282.044 274,279.5C 273.333,278.167 273.333,276.833 274,275.5C 275.045,274.627 275.878,273.627 276.5,272.5 Z"/></g>
<g><path style="opacity:1" fill="#cbcbcb" d="M 327.5,287.5 C 327.173,282.786 327.507,278.12 328.5,273.5C 329.167,277.982 329.834,282.316 330.5,286.5C 332.669,289.068 335.002,289.068 337.5,286.5C 338.443,281.9 338.777,277.233 338.5,272.5C 339.5,272.5 340.5,272.5 341.5,272.5C 341.5,278.833 341.5,285.167 341.5,291.5C 339.857,291.52 338.524,290.853 337.5,289.5C 333.362,292.56 330.028,291.894 327.5,287.5 Z"/></g>
<g><path style="opacity:1" fill="#d8d8d8" d="M 195.5,290.5 C 192.43,290.632 189.43,290.299 186.5,289.5C 181.766,284.869 180.266,279.202 182,272.5C 186.32,265.188 192.32,263.522 200,267.5C 200.749,268.635 200.583,269.635 199.5,270.5C 190.957,265.023 185.957,267.357 184.5,277.5C 185.063,287.699 190.063,290.699 199.5,286.5C 200.353,289.48 199.019,290.813 195.5,290.5 Z"/></g>
<g><path style="opacity:1" fill="#636363" d="M 304.5,287.5 C 305.885,288.947 305.552,289.947 303.5,290.5C 304.11,289.609 304.443,288.609 304.5,287.5 Z"/></g>
<g><path style="opacity:1" fill="#8b8b8b" d="M 186.5,289.5 C 189.43,290.299 192.43,290.632 195.5,290.5C 193.034,291.634 190.367,291.801 187.5,291C 186.944,290.617 186.611,290.117 186.5,289.5 Z"/></g>
<g><path style="opacity:1" fill="#454545" d="M 228.5,291.5 C 226.585,291.784 224.919,291.451 223.5,290.5C 224.75,290.423 225.583,289.756 226,288.5C 227.417,289.078 228.25,290.078 228.5,291.5 Z"/></g>
<g><path style="opacity:1" fill="#868686" d="M 428.5,288.5 C 431.889,290.22 435.556,290.887 439.5,290.5C 436.696,291.638 433.696,291.805 430.5,291C 429.619,290.292 428.953,289.458 428.5,288.5 Z"/></g>
<g><path style="opacity:1" fill="#06713b" d="M 139.5,322.5 C 121.341,323.497 103.008,323.83 84.5,323.5C 84.5,327.167 84.5,330.833 84.5,334.5C 103.5,334.5 122.5,334.5 141.5,334.5C 122.341,335.497 103.007,335.83 83.5,335.5C 83.5,331.167 83.5,326.833 83.5,322.5C 102.167,322.5 120.833,322.5 139.5,322.5 Z"/></g>
</svg>
