<?xml version="1.0" encoding="UTF-8" standalone="yes"?>
<svg version="1.2" width="400" height="400" viewBox="0, 0, 400,400" baseProfile="tiny-ps" xmlns="http://www.w3.org/2000/svg">
  <title>bimi-svg-tiny-12-ps</title>
  <g id="svgg">
    <path id="path0" d="M179.900 0.272 C 177.755 0.359,176.000 0.602,176.000 0.814 C 176.000 1.030,174.587 1.200,172.800 1.200 C 170.933 1.200,169.600 1.367,169.600 1.600 C 169.600 1.822,168.533 2.000,167.200 2.000 C 165.867 2.000,164.800 2.178,164.800 2.400 C 164.800 2.620,163.911 2.800,162.824 2.800 C 161.737 2.800,160.736 2.980,160.600 3.200 C 160.464 3.420,159.823 3.600,159.176 3.600 C 158.529 3.600,158.000 3.780,158.000 4.000 C 158.000 4.220,157.100 4.400,156.000 4.400 C 154.900 4.400,154.000 4.580,154.000 4.800 C 154.000 5.020,153.280 5.200,152.400 5.200 C 151.520 5.200,150.800 5.380,150.800 5.600 C 150.800 5.820,150.080 6.000,149.200 6.000 C 148.320 6.000,147.600 6.180,147.600 6.400 C 147.600 6.620,146.970 6.800,146.200 6.800 C 145.430 6.800,144.800 6.957,144.800 7.148 C 144.800 7.340,143.855 7.619,142.700 7.768 C 140.540 8.046,138.327 8.632,137.105 9.249 C 136.723 9.442,136.136 9.600,135.800 9.600 C 135.464 9.600,134.832 9.780,134.395 10.000 C 133.958 10.220,133.242 10.580,132.805 10.800 C 132.368 11.020,131.738 11.200,131.405 11.200 C 131.072 11.200,130.800 11.380,130.800 11.600 C 130.800 11.820,130.260 12.000,129.600 12.000 C 128.940 12.000,128.400 12.180,128.400 12.400 C 128.400 12.620,128.051 12.800,127.624 12.800 C 127.197 12.800,126.736 12.980,126.600 13.200 C 126.464 13.420,125.913 13.600,125.376 13.600 C 124.839 13.600,124.400 13.780,124.400 14.000 C 124.400 14.220,123.961 14.400,123.424 14.400 C 122.887 14.400,122.336 14.580,122.200 14.800 C 122.064 15.020,121.603 15.200,121.176 15.200 C 120.749 15.200,120.400 15.380,120.400 15.600 C 120.400 15.820,120.040 16.000,119.600 16.000 C 119.160 16.000,118.800 16.180,118.800 16.400 C 118.800 16.620,118.350 16.800,117.800 16.800 C 117.250 16.800,116.800 16.980,116.800 17.200 C 116.800 17.420,116.440 17.600,116.000 17.600 C 115.560 17.600,115.200 17.780,115.200 18.000 C 115.200 18.220,114.840 18.400,114.400 18.400 C 113.960 18.400,113.600 18.580,113.600 18.800 C 113.600 19.020,113.240 19.200,112.800 19.200 C 112.360 19.200,112.000 19.380,112.000 19.600 C 112.000 19.820,111.640 20.000,111.200 20.000 C 110.760 20.000,110.400 20.180,110.400 20.400 C 110.400 20.620,110.040 20.800,109.600 20.800 C 109.160 20.800,108.800 20.980,108.800 21.200 C 108.800 21.420,108.440 21.600,108.000 21.600 C 107.560 21.600,107.200 21.780,107.200 22.000 C 107.200 22.220,106.840 22.400,106.400 22.400 C 105.960 22.400,105.600 22.580,105.600 22.800 C 105.600 23.020,105.253 23.200,104.829 23.200 C 104.404 23.200,103.787 23.470,103.457 23.800 C 103.127 24.130,102.574 24.400,102.229 24.400 C 101.883 24.400,101.600 24.580,101.600 24.800 C 101.600 25.020,101.330 25.200,101.000 25.200 C 100.670 25.200,100.400 25.380,100.400 25.600 C 100.400 25.820,100.164 26.000,99.875 26.000 C 99.587 26.000,98.964 26.360,98.492 26.800 C 98.020 27.240,97.356 27.600,97.017 27.600 C 96.678 27.600,96.400 27.780,96.400 28.000 C 96.400 28.220,96.080 28.400,95.688 28.400 C 95.297 28.400,94.717 28.760,94.400 29.200 C 94.083 29.640,93.503 30.000,93.112 30.000 C 92.720 30.000,92.400 30.180,92.400 30.400 C 92.400 30.620,92.164 30.800,91.875 30.800 C 91.587 30.800,90.964 31.160,90.492 31.600 C 90.020 32.040,89.473 32.400,89.276 32.400 C 89.079 32.400,88.354 32.940,87.663 33.600 C 86.972 34.260,86.148 34.800,85.831 34.800 C 85.513 34.800,85.140 35.160,85.000 35.600 C 84.860 36.040,84.438 36.400,84.061 36.400 C 83.685 36.400,83.117 36.760,82.800 37.200 C 82.483 37.640,81.986 38.000,81.695 38.000 C 81.404 38.000,80.949 38.183,80.683 38.407 C 78.848 39.955,78.238 40.400,77.952 40.400 C 77.773 40.400,76.997 41.030,76.227 41.800 C 75.457 42.570,74.662 43.200,74.462 43.200 C 74.261 43.200,73.355 43.920,72.448 44.800 C 71.541 45.680,70.702 46.400,70.582 46.400 C 70.463 46.400,68.941 47.840,67.200 49.600 C 65.459 51.360,63.802 52.804,63.517 52.809 C 62.860 52.820,52.800 62.904,52.800 63.552 C 52.800 63.817,51.360 65.459,49.600 67.200 C 47.840 68.941,46.400 70.463,46.400 70.582 C 46.400 70.702,45.680 71.541,44.800 72.448 C 43.920 73.355,43.200 74.261,43.200 74.462 C 43.200 74.662,42.570 75.457,41.800 76.227 C 41.030 76.997,40.400 77.773,40.400 77.952 C 40.400 78.238,39.955 78.848,38.407 80.683 C 38.183 80.949,38.000 81.404,38.000 81.695 C 38.000 81.986,37.640 82.483,37.200 82.800 C 36.760 83.117,36.400 83.685,36.400 84.061 C 36.400 84.438,36.040 84.860,35.600 85.000 C 35.160 85.140,34.800 85.513,34.800 85.831 C 34.800 86.148,34.260 86.972,33.600 87.663 C 32.940 88.354,32.400 89.079,32.400 89.276 C 32.400 89.473,32.040 90.020,31.600 90.492 C 31.160 90.964,30.800 91.587,30.800 91.875 C 30.800 92.164,30.620 92.400,30.400 92.400 C 30.180 92.400,30.000 92.720,30.000 93.112 C 30.000 93.503,29.640 94.083,29.200 94.400 C 28.760 94.717,28.400 95.297,28.400 95.688 C 28.400 96.080,28.220 96.400,28.000 96.400 C 27.780 96.400,27.600 96.678,27.600 97.017 C 27.600 97.356,27.240 98.020,26.800 98.492 C 26.360 98.964,26.000 99.587,26.000 99.875 C 26.000 100.164,25.820 100.400,25.600 100.400 C 25.380 100.400,25.200 100.670,25.200 101.000 C 25.200 101.330,25.020 101.600,24.800 101.600 C 24.580 101.600,24.400 101.883,24.400 102.229 C 24.400 102.574,24.130 103.127,23.800 103.457 C 23.470 103.787,23.200 104.404,23.200 104.829 C 23.200 105.253,23.020 105.600,22.800 105.600 C 22.580 105.600,22.400 105.960,22.400 106.400 C 22.400 106.840,22.220 107.200,22.000 107.200 C 21.780 107.200,21.600 107.560,21.600 108.000 C 21.600 108.440,21.420 108.800,21.200 108.800 C 20.980 108.800,20.800 109.160,20.800 109.600 C 20.800 110.040,20.620 110.400,20.400 110.400 C 20.180 110.400,20.000 110.760,20.000 111.200 C 20.000 111.640,19.820 112.000,19.600 112.000 C 19.380 112.000,19.200 112.360,19.200 112.800 C 19.200 113.240,19.020 113.600,18.800 113.600 C 18.580 113.600,18.400 113.960,18.400 114.400 C 18.400 114.840,18.220 115.200,18.000 115.200 C 17.780 115.200,17.600 115.560,17.600 116.000 C 17.600 116.440,17.420 116.800,17.200 116.800 C 16.980 116.800,16.800 117.250,16.800 117.800 C 16.800 118.350,16.620 118.800,16.400 118.800 C 16.180 118.800,16.000 119.160,16.000 119.600 C 16.000 120.040,15.820 120.400,15.600 120.400 C 15.380 120.400,15.200 120.749,15.200 121.176 C 15.200 121.603,15.020 122.064,14.800 122.200 C 14.580 122.336,14.400 122.887,14.400 123.424 C 14.400 123.961,14.220 124.400,14.000 124.400 C 13.780 124.400,13.600 124.839,13.600 125.376 C 13.600 125.913,13.420 126.464,13.200 126.600 C 12.980 126.736,12.800 127.197,12.800 127.624 C 12.800 128.051,12.620 128.400,12.400 128.400 C 12.180 128.400,12.000 128.940,12.000 129.600 C 12.000 130.260,11.820 130.800,11.600 130.800 C 11.380 130.800,11.200 131.072,11.200 131.405 C 11.200 131.738,10.992 132.413,10.738 132.905 C 9.766 134.784,9.600 135.207,9.600 135.800 C 9.600 136.136,9.442 136.723,9.249 137.105 C 8.632 138.327,8.046 140.540,7.768 142.700 C 7.619 143.855,7.340 144.800,7.148 144.800 C 6.957 144.800,6.800 145.430,6.800 146.200 C 6.800 146.970,6.620 147.600,6.400 147.600 C 6.180 147.600,6.000 148.320,6.000 149.200 C 6.000 150.080,5.820 150.800,5.600 150.800 C 5.380 150.800,5.200 151.520,5.200 152.400 C 5.200 153.280,5.020 154.000,4.800 154.000 C 4.580 154.000,4.400 154.900,4.400 156.000 C 4.400 157.100,4.220 158.000,4.000 158.000 C 3.780 158.000,3.600 158.529,3.600 159.176 C 3.600 159.823,3.420 160.464,3.200 160.600 C 2.980 160.736,2.800 161.737,2.800 162.824 C 2.800 163.911,2.620 164.800,2.400 164.800 C 2.178 164.800,2.000 165.867,2.000 167.200 C 2.000 168.533,1.822 169.600,1.600 169.600 C 1.367 169.600,1.200 170.922,1.200 172.767 C 1.200 174.944,1.044 175.985,0.700 176.100 C -0.032 176.344,-0.032 223.656,0.700 223.900 C 1.044 224.015,1.200 225.056,1.200 227.233 C 1.200 229.078,1.367 230.400,1.600 230.400 C 1.822 230.400,2.000 231.467,2.000 232.800 C 2.000 234.133,2.178 235.200,2.400 235.200 C 2.620 235.200,2.800 236.089,2.800 237.176 C 2.800 238.263,2.980 239.264,3.200 239.400 C 3.420 239.536,3.600 240.177,3.600 240.824 C 3.600 241.471,3.780 242.000,4.000 242.000 C 4.220 242.000,4.400 242.900,4.400 244.000 C 4.400 245.100,4.580 246.000,4.800 246.000 C 5.020 246.000,5.200 246.720,5.200 247.600 C 5.200 248.480,5.380 249.200,5.600 249.200 C 5.820 249.200,6.000 249.920,6.000 250.800 C 6.000 251.680,6.180 252.400,6.400 252.400 C 6.620 252.400,6.800 253.030,6.800 253.800 C 6.800 254.570,6.957 255.200,7.148 255.200 C 7.340 255.200,7.619 256.145,7.768 257.300 C 8.046 259.460,8.632 261.673,9.249 262.895 C 9.442 263.277,9.600 263.864,9.600 264.200 C 9.600 264.793,9.766 265.216,10.738 267.095 C 10.992 267.587,11.200 268.262,11.200 268.595 C 11.200 268.928,11.380 269.200,11.600 269.200 C 11.820 269.200,12.000 269.740,12.000 270.400 C 12.000 271.060,12.180 271.600,12.400 271.600 C 12.620 271.600,12.800 271.949,12.800 272.376 C 12.800 272.803,12.980 273.264,13.200 273.400 C 13.420 273.536,13.600 274.087,13.600 274.624 C 13.600 275.161,13.780 275.600,14.000 275.600 C 14.220 275.600,14.400 276.039,14.400 276.576 C 14.400 277.113,14.580 277.664,14.800 277.800 C 15.020 277.936,15.200 278.397,15.200 278.824 C 15.200 279.251,15.380 279.600,15.600 279.600 C 15.820 279.600,16.000 279.960,16.000 280.400 C 16.000 280.840,16.180 281.200,16.400 281.200 C 16.620 281.200,16.800 281.650,16.800 282.200 C 16.800 282.750,16.980 283.200,17.200 283.200 C 17.420 283.200,17.600 283.560,17.600 284.000 C 17.600 284.440,17.780 284.800,18.000 284.800 C 18.220 284.800,18.400 285.160,18.400 285.600 C 18.400 286.040,18.580 286.400,18.800 286.400 C 19.020 286.400,19.200 286.760,19.200 287.200 C 19.200 287.640,19.380 288.000,19.600 288.000 C 19.820 288.000,20.000 288.360,20.000 288.800 C 20.000 289.240,20.180 289.600,20.400 289.600 C 20.620 289.600,20.800 289.960,20.800 290.400 C 20.800 290.840,20.980 291.200,21.200 291.200 C 21.420 291.200,21.600 291.560,21.600 292.000 C 21.600 292.440,21.780 292.800,22.000 292.800 C 22.220 292.800,22.400 293.160,22.400 293.600 C 22.400 294.040,22.580 294.400,22.800 294.400 C 23.020 294.400,23.200 294.747,23.200 295.171 C 23.200 295.596,23.470 296.213,23.800 296.543 C 24.130 296.873,24.400 297.426,24.400 297.771 C 24.400 298.117,24.580 298.400,24.800 298.400 C 25.020 298.400,25.200 298.670,25.200 299.000 C 25.200 299.330,25.380 299.600,25.600 299.600 C 25.820 299.600,26.000 299.836,26.000 300.125 C 26.000 300.413,26.360 301.036,26.800 301.508 C 27.240 301.980,27.600 302.644,27.600 302.983 C 27.600 303.322,27.780 303.600,28.000 303.600 C 28.220 303.600,28.400 303.920,28.400 304.312 C 28.400 304.703,28.760 305.283,29.200 305.600 C 29.640 305.917,30.000 306.497,30.000 306.888 C 30.000 307.280,30.180 307.600,30.400 307.600 C 30.620 307.600,30.800 307.836,30.800 308.125 C 30.800 308.413,31.160 309.036,31.600 309.508 C 32.040 309.980,32.400 310.527,32.400 310.724 C 32.400 310.921,32.940 311.646,33.600 312.337 C 34.260 313.028,34.800 313.852,34.800 314.169 C 34.800 314.487,35.160 314.860,35.600 315.000 C 36.040 315.140,36.400 315.562,36.400 315.939 C 36.400 316.315,36.760 316.883,37.200 317.200 C 37.640 317.517,38.000 318.014,38.000 318.305 C 38.000 318.596,38.183 319.051,38.407 319.317 C 39.955 321.152,40.400 321.762,40.400 322.048 C 40.400 322.227,41.030 323.003,41.800 323.773 C 42.570 324.543,43.200 325.338,43.200 325.538 C 43.200 325.739,43.920 326.645,44.800 327.552 C 45.680 328.459,46.400 329.298,46.400 329.418 C 46.400 329.537,47.840 331.059,49.600 332.800 C 51.360 334.541,52.804 336.198,52.809 336.483 C 52.820 337.140,62.904 347.200,63.552 347.200 C 63.817 347.200,65.459 348.640,67.200 350.400 C 68.941 352.160,70.463 353.600,70.582 353.600 C 70.702 353.600,71.541 354.320,72.448 355.200 C 73.355 356.080,74.261 356.800,74.462 356.800 C 74.662 356.800,75.457 357.430,76.227 358.200 C 76.997 358.970,77.773 359.600,77.952 359.600 C 78.238 359.600,78.848 360.045,80.683 361.593 C 80.949 361.817,81.404 362.000,81.695 362.000 C 81.986 362.000,82.483 362.360,82.800 362.800 C 83.117 363.240,83.685 363.600,84.061 363.600 C 84.438 363.600,84.860 363.960,85.000 364.400 C 85.140 364.840,85.513 365.200,85.831 365.200 C 86.148 365.200,86.972 365.740,87.663 366.400 C 88.354 367.060,89.079 367.600,89.276 367.600 C 89.473 367.600,90.020 367.960,90.492 368.400 C 90.964 368.840,91.587 369.200,91.875 369.200 C 92.164 369.200,92.400 369.380,92.400 369.600 C 92.400 369.820,92.720 370.000,93.112 370.000 C 93.503 370.000,94.083 370.360,94.400 370.800 C 94.717 371.240,95.297 371.600,95.688 371.600 C 96.080 371.600,96.400 371.780,96.400 372.000 C 96.400 372.220,96.678 372.400,97.017 372.400 C 97.356 372.400,98.020 372.760,98.492 373.200 C 98.964 373.640,99.587 374.000,99.875 374.000 C 100.164 374.000,100.400 374.180,100.400 374.400 C 100.400 374.620,100.670 374.800,101.000 374.800 C 101.330 374.800,101.600 374.980,101.600 375.200 C 101.600 375.420,101.883 375.600,102.229 375.600 C 102.574 375.600,103.127 375.870,103.457 376.200 C 103.787 376.530,104.404 376.800,104.829 376.800 C 105.253 376.800,105.600 376.980,105.600 377.200 C 105.600 377.420,105.960 377.600,106.400 377.600 C 106.840 377.600,107.200 377.780,107.200 378.000 C 107.200 378.220,107.560 378.400,108.000 378.400 C 108.440 378.400,108.800 378.580,108.800 378.800 C 108.800 379.020,109.160 379.200,109.600 379.200 C 110.040 379.200,110.400 379.380,110.400 379.600 C 110.400 379.820,110.760 380.000,111.200 380.000 C 111.640 380.000,112.000 380.180,112.000 380.400 C 112.000 380.620,112.360 380.800,112.800 380.800 C 113.240 380.800,113.600 380.980,113.600 381.200 C 113.600 381.420,113.960 381.600,114.400 381.600 C 114.840 381.600,115.200 381.780,115.200 382.000 C 115.200 382.220,115.560 382.400,116.000 382.400 C 116.440 382.400,116.800 382.580,116.800 382.800 C 116.800 383.020,117.250 383.200,117.800 383.200 C 118.350 383.200,118.800 383.380,118.800 383.600 C 118.800 383.820,119.160 384.000,119.600 384.000 C 120.040 384.000,120.400 384.180,120.400 384.400 C 120.400 384.620,120.749 384.800,121.176 384.800 C 121.603 384.800,122.064 384.980,122.200 385.200 C 122.336 385.420,122.887 385.600,123.424 385.600 C 123.961 385.600,124.400 385.780,124.400 386.000 C 124.400 386.220,124.839 386.400,125.376 386.400 C 125.913 386.400,126.464 386.580,126.600 386.800 C 126.736 387.020,127.197 387.200,127.624 387.200 C 128.051 387.200,128.400 387.380,128.400 387.600 C 128.400 387.820,128.940 388.000,129.600 388.000 C 130.260 388.000,130.800 388.180,130.800 388.400 C 130.800 388.620,131.072 388.800,131.405 388.800 C 131.738 388.800,132.368 388.980,132.805 389.200 C 133.242 389.420,133.958 389.780,134.395 390.000 C 134.832 390.220,135.464 390.400,135.800 390.400 C 136.136 390.400,136.723 390.558,137.105 390.751 C 138.327 391.368,140.540 391.954,142.700 392.232 C 143.855 392.381,144.800 392.660,144.800 392.852 C 144.800 393.043,145.430 393.200,146.200 393.200 C 146.970 393.200,147.600 393.380,147.600 393.600 C 147.600 393.820,148.320 394.000,149.200 394.000 C 150.080 394.000,150.800 394.180,150.800 394.400 C 150.800 394.620,151.520 394.800,152.400 394.800 C 153.280 394.800,154.000 394.980,154.000 395.200 C 154.000 395.420,154.900 395.600,156.000 395.600 C 157.100 395.600,158.000 395.780,158.000 396.000 C 158.000 396.220,158.529 396.400,159.176 396.400 C 159.823 396.400,160.464 396.580,160.600 396.800 C 160.736 397.020,161.737 397.200,162.824 397.200 C 163.911 397.200,164.800 397.380,164.800 397.600 C 164.800 397.822,165.867 398.000,167.200 398.000 C 168.533 398.000,169.600 398.178,169.600 398.400 C 169.600 398.633,170.922 398.800,172.767 398.800 C 174.944 398.800,175.985 398.956,176.100 399.300 C 176.344 400.032,223.656 400.032,223.900 399.300 C 224.015 398.956,225.056 398.800,227.233 398.800 C 229.078 398.800,230.400 398.633,230.400 398.400 C 230.400 398.178,231.467 398.000,232.800 398.000 C 234.133 398.000,235.200 397.822,235.200 397.600 C 235.200 397.380,236.089 397.200,237.176 397.200 C 238.263 397.200,239.264 397.020,239.400 396.800 C 239.536 396.580,240.177 396.400,240.824 396.400 C 241.471 396.400,242.000 396.220,242.000 396.000 C 242.000 395.780,242.900 395.600,244.000 395.600 C 245.100 395.600,246.000 395.420,246.000 395.200 C 246.000 394.980,246.720 394.800,247.600 394.800 C 248.480 394.800,249.200 394.620,249.200 394.400 C 249.200 394.180,249.920 394.000,250.800 394.000 C 251.680 394.000,252.400 393.820,252.400 393.600 C 252.400 393.380,253.030 393.200,253.800 393.200 C 254.570 393.200,255.200 393.043,255.200 392.852 C 255.200 392.660,256.145 392.381,257.300 392.232 C 259.460 391.954,261.673 391.368,262.895 390.751 C 263.277 390.558,263.864 390.400,264.200 390.400 C 264.536 390.400,265.168 390.220,265.605 390.000 C 266.042 389.780,266.758 389.420,267.195 389.200 C 267.632 388.980,268.262 388.800,268.595 388.800 C 268.928 388.800,269.200 388.620,269.200 388.400 C 269.200 388.180,269.740 388.000,270.400 388.000 C 271.060 388.000,271.600 387.820,271.600 387.600 C 271.600 387.380,271.949 387.200,272.376 387.200 C 272.803 387.200,273.264 387.020,273.400 386.800 C 273.536 386.580,274.087 386.400,274.624 386.400 C 275.161 386.400,275.600 386.220,275.600 386.000 C 275.600 385.780,276.039 385.600,276.576 385.600 C 277.113 385.600,277.664 385.420,277.800 385.200 C 277.936 384.980,278.397 384.800,278.824 384.800 C 279.251 384.800,279.600 384.620,279.600 384.400 C 279.600 384.180,279.960 384.000,280.400 384.000 C 280.840 384.000,281.200 383.820,281.200 383.600 C 281.200 383.380,281.650 383.200,282.200 383.200 C 282.750 383.200,283.200 383.020,283.200 382.800 C 283.200 382.580,283.560 382.400,284.000 382.400 C 284.440 382.400,284.800 382.220,284.800 382.000 C 284.800 381.780,285.160 381.600,285.600 381.600 C 286.040 381.600,286.400 381.420,286.400 381.200 C 286.400 380.980,286.760 380.800,287.200 380.800 C 287.640 380.800,288.000 380.620,288.000 380.400 C 288.000 380.180,288.360 380.000,288.800 380.000 C 289.240 380.000,289.600 379.820,289.600 379.600 C 289.600 379.380,289.960 379.200,290.400 379.200 C 290.840 379.200,291.200 379.020,291.200 378.800 C 291.200 378.580,291.560 378.400,292.000 378.400 C 292.440 378.400,292.800 378.220,292.800 378.000 C 292.800 377.780,293.160 377.600,293.600 377.600 C 294.040 377.600,294.400 377.420,294.400 377.200 C 294.400 376.980,294.747 376.800,295.171 376.800 C 295.596 376.800,296.213 376.530,296.543 376.200 C 296.873 375.870,297.426 375.600,297.771 375.600 C 298.117 375.600,298.400 375.420,298.400 375.200 C 298.400 374.980,298.670 374.800,299.000 374.800 C 299.330 374.800,299.600 374.620,299.600 374.400 C 299.600 374.180,299.836 374.000,300.125 374.000 C 300.413 374.000,301.036 373.640,301.508 373.200 C 301.980 372.760,302.644 372.400,302.983 372.400 C 303.322 372.400,303.600 372.220,303.600 372.000 C 303.600 371.780,303.920 371.600,304.312 371.600 C 304.703 371.600,305.283 371.240,305.600 370.800 C 305.917 370.360,306.497 370.000,306.888 370.000 C 307.280 370.000,307.600 369.820,307.600 369.600 C 307.600 369.380,307.836 369.200,308.125 369.200 C 308.413 369.200,309.036 368.840,309.508 368.400 C 309.980 367.960,310.527 367.600,310.724 367.600 C 310.921 367.600,311.646 367.060,312.337 366.400 C 313.028 365.740,313.852 365.200,314.169 365.200 C 314.487 365.200,314.860 364.840,315.000 364.400 C 315.140 363.960,315.562 363.600,315.939 363.600 C 316.315 363.600,316.883 363.240,317.200 362.800 C 317.517 362.360,318.014 362.000,318.305 362.000 C 318.596 362.000,319.051 361.817,319.317 361.593 C 321.152 360.045,321.762 359.600,322.048 359.600 C 322.227 359.600,323.003 358.970,323.773 358.200 C 324.543 357.430,325.338 356.800,325.538 356.800 C 325.739 356.800,326.645 356.080,327.552 355.200 C 328.459 354.320,329.298 353.600,329.418 353.600 C 329.537 353.600,331.059 352.160,332.800 350.400 C 334.541 348.640,336.183 347.200,336.448 347.200 C 337.096 347.200,347.180 337.140,347.191 336.483 C 347.196 336.198,348.640 334.541,350.400 332.800 C 352.160 331.059,353.600 329.537,353.600 329.418 C 353.600 329.298,354.320 328.459,355.200 327.552 C 356.080 326.645,356.800 325.739,356.800 325.538 C 356.800 325.338,357.430 324.543,358.200 323.773 C 358.970 323.003,359.600 322.227,359.600 322.048 C 359.600 321.762,360.045 321.152,361.593 319.317 C 361.817 319.051,362.000 318.596,362.000 318.305 C 362.000 318.014,362.360 317.517,362.800 317.200 C 363.240 316.883,363.600 316.315,363.600 315.939 C 363.600 315.562,363.960 315.140,364.400 315.000 C 364.840 314.860,365.200 314.487,365.200 314.169 C 365.200 313.852,365.740 313.028,366.400 312.337 C 367.060 311.646,367.600 310.921,367.600 310.724 C 367.600 310.527,367.960 309.980,368.400 309.508 C 368.840 309.036,369.200 308.413,369.200 308.125 C 369.200 307.836,369.380 307.600,369.600 307.600 C 369.820 307.600,370.000 307.280,370.000 306.888 C 370.000 306.497,370.360 305.917,370.800 305.600 C 371.240 305.283,371.600 304.703,371.600 304.312 C 371.600 303.920,371.780 303.600,372.000 303.600 C 372.220 303.600,372.400 303.322,372.400 302.983 C 372.400 302.644,372.760 301.980,373.200 301.508 C 373.640 301.036,374.000 300.413,374.000 300.125 C 374.000 299.836,374.180 299.600,374.400 299.600 C 374.620 299.600,374.800 299.330,374.800 299.000 C 374.800 298.670,374.980 298.400,375.200 298.400 C 375.420 298.400,375.600 298.117,375.600 297.771 C 375.600 297.426,375.870 296.873,376.200 296.543 C 376.530 296.213,376.800 295.596,376.800 295.171 C 376.800 294.747,376.980 294.400,377.200 294.400 C 377.420 294.400,377.600 294.040,377.600 293.600 C 377.600 293.160,377.780 292.800,378.000 292.800 C 378.220 292.800,378.400 292.440,378.400 292.000 C 378.400 291.560,378.580 291.200,378.800 291.200 C 379.020 291.200,379.200 290.840,379.200 290.400 C 379.200 289.960,379.380 289.600,379.600 289.600 C 379.820 289.600,380.000 289.240,380.000 288.800 C 380.000 288.360,380.180 288.000,380.400 288.000 C 380.620 288.000,380.800 287.640,380.800 287.200 C 380.800 286.760,380.980 286.400,381.200 286.400 C 381.420 286.400,381.600 286.040,381.600 285.600 C 381.600 285.160,381.780 284.800,382.000 284.800 C 382.220 284.800,382.400 284.440,382.400 284.000 C 382.400 283.560,382.580 283.200,382.800 283.200 C 383.020 283.200,383.200 282.750,383.200 282.200 C 383.200 281.650,383.380 281.200,383.600 281.200 C 383.820 281.200,384.000 280.840,384.000 280.400 C 384.000 279.960,384.180 279.600,384.400 279.600 C 384.620 279.600,384.800 279.251,384.800 278.824 C 384.800 278.397,384.980 277.936,385.200 277.800 C 385.420 277.664,385.600 277.113,385.600 276.576 C 385.600 276.039,385.780 275.600,386.000 275.600 C 386.220 275.600,386.400 275.161,386.400 274.624 C 386.400 274.087,386.580 273.536,386.800 273.400 C 387.020 273.264,387.200 272.803,387.200 272.376 C 387.200 271.949,387.380 271.600,387.600 271.600 C 387.820 271.600,388.000 271.060,388.000 270.400 C 388.000 269.740,388.180 269.200,388.400 269.200 C 388.620 269.200,388.800 268.928,388.800 268.595 C 388.800 268.262,388.980 267.632,389.200 267.195 C 389.420 266.758,389.780 266.042,390.000 265.605 C 390.220 265.168,390.400 264.536,390.400 264.200 C 390.400 263.864,390.558 263.277,390.751 262.895 C 391.368 261.673,391.954 259.460,392.232 257.300 C 392.381 256.145,392.660 255.200,392.852 255.200 C 393.043 255.200,393.200 254.570,393.200 253.800 C 393.200 253.030,393.380 252.400,393.600 252.400 C 393.820 252.400,394.000 251.680,394.000 250.800 C 394.000 249.920,394.180 249.200,394.400 249.200 C 394.620 249.200,394.800 248.480,394.800 247.600 C 394.800 246.720,394.980 246.000,395.200 246.000 C 395.420 246.000,395.600 245.100,395.600 244.000 C 395.600 242.900,395.780 242.000,396.000 242.000 C 396.220 242.000,396.400 241.471,396.400 240.824 C 396.400 240.177,396.580 239.536,396.800 239.400 C 397.020 239.264,397.200 238.263,397.200 237.176 C 397.200 236.089,397.380 235.200,397.600 235.200 C 397.822 235.200,398.000 234.133,398.000 232.800 C 398.000 231.467,398.178 230.400,398.400 230.400 C 398.633 230.400,398.800 229.078,398.800 227.233 C 398.800 225.056,398.956 224.015,399.300 223.900 C 399.693 223.769,399.800 218.631,399.800 200.000 C 399.800 181.369,399.693 176.231,399.300 176.100 C 398.956 175.985,398.800 174.944,398.800 172.767 C 398.800 170.922,398.633 169.600,398.400 169.600 C 398.178 169.600,398.000 168.533,398.000 167.200 C 398.000 165.867,397.822 164.800,397.600 164.800 C 397.380 164.800,397.200 163.911,397.200 162.824 C 397.200 161.737,397.020 160.736,396.800 160.600 C 396.580 160.464,396.400 159.823,396.400 159.176 C 396.400 158.529,396.220 158.000,396.000 158.000 C 395.780 158.000,395.600 157.100,395.600 156.000 C 395.600 154.900,395.420 154.000,395.200 154.000 C 394.980 154.000,394.800 153.280,394.800 152.400 C 394.800 151.520,394.620 150.800,394.400 150.800 C 394.180 150.800,394.000 150.080,394.000 149.200 C 394.000 148.320,393.820 147.600,393.600 147.600 C 393.380 147.600,393.200 146.970,393.200 146.200 C 393.200 145.430,393.043 144.800,392.852 144.800 C 392.660 144.800,392.381 143.855,392.232 142.700 C 391.954 140.540,391.368 138.327,390.751 137.105 C 390.558 136.723,390.400 136.136,390.400 135.800 C 390.400 135.464,390.220 134.832,390.000 134.395 C 389.780 133.958,389.420 133.242,389.200 132.805 C 388.980 132.368,388.800 131.738,388.800 131.405 C 388.800 131.072,388.620 130.800,388.400 130.800 C 388.180 130.800,388.000 130.260,388.000 129.600 C 388.000 128.940,387.820 128.400,387.600 128.400 C 387.380 128.400,387.200 128.051,387.200 127.624 C 387.200 127.197,387.020 126.736,386.800 126.600 C 386.580 126.464,386.400 125.913,386.400 125.376 C 386.400 124.839,386.220 124.400,386.000 124.400 C 385.780 124.400,385.600 123.961,385.600 123.424 C 385.600 122.887,385.420 122.336,385.200 122.200 C 384.980 122.064,384.800 121.603,384.800 121.176 C 384.800 120.749,384.620 120.400,384.400 120.400 C 384.180 120.400,384.000 120.040,384.000 119.600 C 384.000 119.160,383.820 118.800,383.600 118.800 C 383.380 118.800,383.200 118.350,383.200 117.800 C 383.200 117.250,383.020 116.800,382.800 116.800 C 382.580 116.800,382.400 116.440,382.400 116.000 C 382.400 115.560,382.220 115.200,382.000 115.200 C 381.780 115.200,381.600 114.840,381.600 114.400 C 381.600 113.960,381.420 113.600,381.200 113.600 C 380.980 113.600,380.800 113.240,380.800 112.800 C 380.800 112.360,380.620 112.000,380.400 112.000 C 380.180 112.000,380.000 111.640,380.000 111.200 C 380.000 110.760,379.820 110.400,379.600 110.400 C 379.380 110.400,379.200 110.040,379.200 109.600 C 379.200 109.160,379.020 108.800,378.800 108.800 C 378.580 108.800,378.400 108.440,378.400 108.000 C 378.400 107.560,378.220 107.200,378.000 107.200 C 377.780 107.200,377.600 106.840,377.600 106.400 C 377.600 105.960,377.420 105.600,377.200 105.600 C 376.980 105.600,376.800 105.253,376.800 104.829 C 376.800 104.404,376.530 103.787,376.200 103.457 C 375.870 103.127,375.600 102.574,375.600 102.229 C 375.600 101.883,375.420 101.600,375.200 101.600 C 374.980 101.600,374.800 101.330,374.800 101.000 C 374.800 100.670,374.620 100.400,374.400 100.400 C 374.180 100.400,374.000 100.164,374.000 99.875 C 374.000 99.587,373.640 98.964,373.200 98.492 C 372.760 98.020,372.400 97.356,372.400 97.017 C 372.400 96.678,372.220 96.400,372.000 96.400 C 371.780 96.400,371.600 96.080,371.600 95.688 C 371.600 95.297,371.240 94.717,370.800 94.400 C 370.360 94.083,370.000 93.503,370.000 93.112 C 370.000 92.720,369.820 92.400,369.600 92.400 C 369.380 92.400,369.200 92.164,369.200 91.875 C 369.200 91.587,368.840 90.964,368.400 90.492 C 367.960 90.020,367.600 89.473,367.600 89.276 C 367.600 89.079,367.060 88.354,366.400 87.663 C 365.740 86.972,365.200 86.148,365.200 85.831 C 365.200 85.513,364.840 85.140,364.400 85.000 C 363.960 84.860,363.600 84.438,363.600 84.061 C 363.600 83.685,363.240 83.117,362.800 82.800 C 362.360 82.483,362.000 81.986,362.000 81.695 C 362.000 81.404,361.817 80.949,361.593 80.683 C 360.045 78.848,359.600 78.238,359.600 77.952 C 359.600 77.773,358.970 76.997,358.200 76.227 C 357.430 75.457,356.800 74.662,356.800 74.462 C 356.800 74.261,356.080 73.355,355.200 72.448 C 354.320 71.541,353.600 70.702,353.600 70.582 C 353.600 70.463,352.160 68.941,350.400 67.200 C 348.640 65.459,347.196 63.802,347.191 63.517 C 347.180 62.860,337.096 52.800,336.448 52.800 C 336.183 52.800,334.541 51.360,332.800 49.600 C 331.059 47.840,329.537 46.400,329.418 46.400 C 329.298 46.400,328.459 45.680,327.552 44.800 C 326.645 43.920,325.739 43.200,325.538 43.200 C 325.338 43.200,324.543 42.570,323.773 41.800 C 323.003 41.030,322.227 40.400,322.048 40.400 C 321.762 40.400,321.152 39.955,319.317 38.407 C 319.051 38.183,318.596 38.000,318.305 38.000 C 318.014 38.000,317.517 37.640,317.200 37.200 C 316.883 36.760,316.315 36.400,315.939 36.400 C 315.562 36.400,315.140 36.040,315.000 35.600 C 314.860 35.160,314.487 34.800,314.169 34.800 C 313.852 34.800,313.028 34.260,312.337 33.600 C 311.646 32.940,310.921 32.400,310.724 32.400 C 310.527 32.400,309.980 32.040,309.508 31.600 C 309.036 31.160,308.413 30.800,308.125 30.800 C 307.836 30.800,307.600 30.620,307.600 30.400 C 307.600 30.180,307.280 30.000,306.888 30.000 C 306.497 30.000,305.917 29.640,305.600 29.200 C 305.283 28.760,304.703 28.400,304.312 28.400 C 303.920 28.400,303.600 28.220,303.600 28.000 C 303.600 27.780,303.322 27.600,302.983 27.600 C 302.644 27.600,301.980 27.240,301.508 26.800 C 301.036 26.360,300.413 26.000,300.125 26.000 C 299.836 26.000,299.600 25.820,299.600 25.600 C 299.600 25.380,299.330 25.200,299.000 25.200 C 298.670 25.200,298.400 25.020,298.400 24.800 C 298.400 24.580,298.117 24.400,297.771 24.400 C 297.426 24.400,296.873 24.130,296.543 23.800 C 296.213 23.470,295.596 23.200,295.171 23.200 C 294.747 23.200,294.400 23.020,294.400 22.800 C 294.400 22.580,294.040 22.400,293.600 22.400 C 293.160 22.400,292.800 22.220,292.800 22.000 C 292.800 21.780,292.440 21.600,292.000 21.600 C 291.560 21.600,291.200 21.420,291.200 21.200 C 291.200 20.980,290.840 20.800,290.400 20.800 C 289.960 20.800,289.600 20.620,289.600 20.400 C 289.600 20.180,289.240 20.000,288.800 20.000 C 288.360 20.000,288.000 19.820,288.000 19.600 C 288.000 19.380,287.640 19.200,287.200 19.200 C 286.760 19.200,286.400 19.020,286.400 18.800 C 286.400 18.580,286.040 18.400,285.600 18.400 C 285.160 18.400,284.800 18.220,284.800 18.000 C 284.800 17.780,284.440 17.600,284.000 17.600 C 283.560 17.600,283.200 17.420,283.200 17.200 C 283.200 16.980,282.750 16.800,282.200 16.800 C 281.650 16.800,281.200 16.620,281.200 16.400 C 281.200 16.180,280.840 16.000,280.400 16.000 C 279.960 16.000,279.600 15.820,279.600 15.600 C 279.600 15.380,279.251 15.200,278.824 15.200 C 278.397 15.200,277.936 15.020,277.800 14.800 C 277.664 14.580,277.113 14.400,276.576 14.400 C 276.039 14.400,275.600 14.220,275.600 14.000 C 275.600 13.780,275.161 13.600,274.624 13.600 C 274.087 13.600,273.536 13.420,273.400 13.200 C 273.264 12.980,272.803 12.800,272.376 12.800 C 271.949 12.800,271.600 12.620,271.600 12.400 C 271.600 12.180,271.060 12.000,270.400 12.000 C 269.740 12.000,269.200 11.820,269.200 11.600 C 269.200 11.380,268.928 11.200,268.595 11.200 C 268.007 11.200,267.582 11.033,265.705 10.062 C 265.213 9.808,264.536 9.600,264.200 9.600 C 263.864 9.600,263.277 9.442,262.895 9.249 C 261.673 8.632,259.460 8.046,257.300 7.768 C 256.145 7.619,255.200 7.340,255.200 7.148 C 255.200 6.957,254.570 6.800,253.800 6.800 C 253.030 6.800,252.400 6.620,252.400 6.400 C 252.400 6.180,251.680 6.000,250.800 6.000 C 249.920 6.000,249.200 5.820,249.200 5.600 C 249.200 5.380,248.480 5.200,247.600 5.200 C 246.720 5.200,246.000 5.020,246.000 4.800 C 246.000 4.580,245.100 4.400,244.000 4.400 C 242.900 4.400,242.000 4.220,242.000 4.000 C 242.000 3.780,241.471 3.600,240.824 3.600 C 240.177 3.600,239.536 3.420,239.400 3.200 C 239.264 2.980,238.263 2.800,237.176 2.800 C 236.089 2.800,235.200 2.620,235.200 2.400 C 235.200 2.178,234.133 2.000,232.800 2.000 C 231.467 2.000,230.400 1.822,230.400 1.600 C 230.400 1.367,229.078 1.200,227.233 1.200 C 225.150 1.200,224.013 1.038,223.909 0.726 C 223.751 0.253,189.249 -0.103,179.900 0.272 M89.837 169.400 C 94.688 171.028,98.985 174.325,101.630 178.447 L 102.883 180.400 105.409 180.400 C 109.357 180.400,109.200 180.183,109.200 185.643 L 109.200 190.400 107.900 190.406 C 105.984 190.415,105.805 190.680,105.214 194.400 C 104.419 199.406,102.897 202.881,99.947 206.425 C 97.352 209.543,97.416 209.585,104.800 209.599 C 112.885 209.614,116.540 210.729,121.511 214.697 C 136.491 226.654,134.396 250.478,117.600 259.165 C 112.200 261.958,111.350 262.035,87.400 261.911 L 66.200 261.800 66.083 257.800 C 66.019 255.600,66.066 253.401,66.187 252.913 L 66.409 252.026 88.704 251.913 L 111.000 251.800 113.690 250.526 C 127.283 244.086,125.242 223.642,110.617 219.747 C 108.215 219.107,76.021 218.946,75.380 219.570 C 75.171 219.774,73.470 220.605,71.600 221.418 C 67.550 223.177,65.357 224.147,62.405 225.483 C 59.473 226.810,59.426 226.763,56.664 219.761 C 55.370 216.483,53.971 213.037,53.556 212.104 C 53.140 211.172,52.800 210.224,52.800 209.999 C 52.800 209.774,52.641 209.277,52.447 208.895 C 52.252 208.513,51.911 207.750,51.687 207.200 C 51.464 206.650,50.974 205.503,50.599 204.651 C 50.223 203.799,49.771 202.629,49.593 202.051 C 49.416 201.473,47.905 197.588,46.235 193.419 C 44.566 189.249,43.200 185.448,43.200 184.973 C 43.200 184.074,43.906 183.703,53.100 179.758 C 53.815 179.451,54.985 178.949,55.700 178.642 C 56.415 178.335,57.810 177.727,58.800 177.289 C 59.790 176.852,61.950 175.912,63.600 175.200 C 65.250 174.488,67.320 173.588,68.200 173.200 C 69.080 172.812,71.150 171.901,72.800 171.175 C 79.678 168.152,84.593 167.639,89.837 169.400 M176.786 207.174 C 177.014 207.599,177.200 209.219,177.200 210.774 C 177.200 213.501,177.412 214.011,178.220 213.235 C 178.612 212.859,180.534 212.640,182.547 212.742 C 184.172 212.824,186.597 215.361,187.205 217.615 C 188.925 223.992,183.569 230.105,178.562 227.481 C 177.517 226.934,177.292 226.937,176.326 227.507 C 174.120 228.811,174.000 228.270,174.000 217.018 C 174.000 211.471,174.120 206.813,174.267 206.667 C 174.819 206.114,176.388 206.430,176.786 207.174 M155.967 208.179 C 157.722 209.287,157.919 209.811,157.037 211.018 C 156.482 211.776,156.448 211.775,154.937 210.938 C 150.909 208.708,146.154 209.988,145.365 213.514 C 145.232 214.111,144.967 215.211,144.778 215.957 C 143.303 221.765,149.182 227.281,153.828 224.448 C 156.471 222.836,158.353 223.446,157.227 225.550 C 154.648 230.368,144.619 228.038,142.399 222.106 C 138.685 212.180,147.680 202.948,155.967 208.179 M282.567 207.043 C 283.659 207.462,283.403 209.934,282.237 210.226 C 280.924 210.556,279.600 209.772,279.600 208.666 C 279.600 207.102,280.887 206.398,282.567 207.043 M325.623 207.200 C 329.131 208.174,330.736 212.926,328.553 215.878 L 327.707 217.023 328.853 218.396 C 334.025 224.591,322.049 232.021,316.599 225.999 C 315.212 224.466,317.288 221.871,318.922 223.097 C 321.616 225.119,325.600 224.362,325.600 221.829 C 325.600 220.090,324.446 219.200,322.191 219.200 C 320.279 219.200,319.600 218.658,319.600 217.134 C 319.600 215.824,320.550 215.200,322.545 215.200 C 324.223 215.200,325.200 214.335,325.200 212.851 C 325.200 210.680,322.436 210.071,319.371 211.567 C 317.938 212.267,317.739 212.279,317.100 211.705 C 314.135 209.040,320.375 205.742,325.623 207.200 M344.774 208.033 C 346.453 208.977,346.759 209.782,345.986 211.226 C 345.495 212.145,344.061 212.233,342.976 211.413 C 341.309 210.151,338.278 210.702,337.385 212.429 C 336.370 214.391,336.582 214.880,338.300 214.535 C 346.308 212.927,350.240 223.189,343.146 227.181 C 337.437 230.394,331.993 225.835,332.006 217.851 C 332.021 208.732,337.931 204.188,344.774 208.033 M359.414 208.183 C 364.368 211.962,363.691 224.638,358.393 227.299 C 354.353 229.328,349.762 227.103,348.378 222.447 C 345.309 212.116,352.457 202.877,359.414 208.183 M290.000 210.800 C 290.220 212.781,291.675 213.367,295.217 212.903 C 296.120 212.784,296.794 212.913,297.077 213.259 C 297.615 213.914,300.400 220.762,300.400 221.429 C 300.400 223.909,301.634 222.497,303.474 217.909 C 305.404 213.097,305.469 212.997,306.778 212.870 C 308.676 212.686,308.393 214.092,304.779 222.800 C 301.023 231.851,298.159 235.298,295.684 233.747 C 294.357 232.915,294.639 231.794,296.372 231.012 C 299.840 229.449,299.940 227.884,297.024 220.857 C 294.197 214.048,294.277 214.185,293.621 214.975 C 293.336 215.319,292.498 215.600,291.759 215.600 C 290.078 215.600,289.827 216.382,290.083 220.804 C 290.287 224.325,290.760 225.200,292.462 225.200 C 293.803 225.200,294.256 225.973,293.617 227.169 C 293.072 228.187,290.929 228.294,289.182 227.390 C 287.396 226.467,286.800 224.561,286.800 219.779 C 286.800 215.867,286.756 215.649,285.941 215.528 C 284.048 215.246,283.911 212.800,285.787 212.800 C 286.674 212.800,286.800 212.629,286.800 211.429 C 286.800 208.346,289.665 207.783,290.000 210.800 M353.309 211.884 C 352.090 213.746,352.278 221.993,353.570 223.368 C 356.475 226.460,358.848 221.890,357.982 214.870 C 357.495 210.919,354.989 209.317,353.309 211.884 M199.175 213.561 C 200.722 214.652,201.641 216.136,201.881 217.931 C 202.235 220.566,201.813 220.800,196.701 220.800 L 192.300 220.800 192.551 222.100 C 193.094 224.916,195.967 225.849,199.518 224.363 C 201.765 223.422,202.369 225.392,200.305 226.932 C 197.194 229.253,191.738 227.808,190.050 224.217 C 186.808 217.321,193.473 209.538,199.175 213.561 M212.733 213.764 C 212.934 214.782,212.042 215.600,210.732 215.600 C 208.275 215.600,207.600 217.075,207.600 222.444 C 207.600 226.703,207.524 227.213,206.829 227.584 C 204.662 228.744,204.339 227.617,204.486 219.400 L 204.600 213.000 205.700 212.873 C 206.305 212.804,206.800 212.939,206.800 213.173 C 206.800 213.695,208.096 213.738,208.620 213.234 C 209.650 212.241,212.505 212.609,212.733 213.764 M222.900 213.458 C 225.570 214.824,223.964 216.827,221.005 215.822 C 218.879 215.101,217.130 215.579,216.866 216.955 C 216.686 217.886,217.207 218.227,220.044 219.035 C 225.129 220.483,226.312 224.758,222.305 227.201 C 219.533 228.892,213.937 227.786,213.673 225.496 C 213.509 224.074,214.379 223.731,216.046 224.563 C 217.654 225.365,220.539 225.397,221.184 224.619 C 222.174 223.427,221.281 222.458,218.405 221.601 C 213.603 220.171,212.161 217.066,214.985 214.241 C 216.882 212.345,220.103 212.026,222.900 213.458 M236.672 213.488 C 237.982 214.341,238.786 215.789,239.061 217.791 C 239.440 220.556,239.044 220.800,234.175 220.800 C 229.670 220.800,229.406 220.923,230.035 222.728 C 230.852 225.073,233.432 225.839,236.150 224.543 C 237.824 223.745,238.800 224.043,238.800 225.352 C 238.800 229.004,230.050 228.652,227.629 224.903 C 223.428 218.396,230.498 209.471,236.672 213.488 M251.600 213.579 C 252.846 214.453,253.102 215.810,252.119 216.337 C 251.603 216.613,251.163 216.562,250.618 216.164 C 248.365 214.516,245.008 215.894,244.372 218.727 C 243.363 223.217,246.876 226.741,250.194 224.567 C 251.483 223.722,252.800 224.153,252.800 225.419 C 252.800 227.449,247.499 228.800,244.880 227.438 C 240.710 225.268,239.602 219.520,242.500 215.096 C 244.156 212.569,249.006 211.760,251.600 213.579 M278.733 213.764 C 278.934 214.782,278.042 215.600,276.733 215.600 C 274.260 215.600,273.600 216.973,273.600 222.120 C 273.600 227.234,273.022 228.575,271.233 227.618 C 270.438 227.192,270.400 226.856,270.400 220.173 C 270.400 212.568,270.546 212.101,272.589 213.194 C 273.103 213.469,273.750 213.554,274.027 213.383 C 275.741 212.324,278.493 212.547,278.733 213.764 M161.084 213.300 C 161.294 213.575,161.697 214.430,161.980 215.200 C 162.263 215.970,162.833 217.363,163.247 218.296 C 163.661 219.228,164.000 220.137,164.000 220.316 C 164.000 220.494,164.225 221.125,164.500 221.717 C 165.011 222.817,166.001 223.202,165.998 222.300 C 165.995 221.491,169.306 213.427,169.773 213.106 C 172.543 211.200,172.507 213.395,169.656 220.423 C 165.192 231.421,164.331 232.829,161.553 233.661 C 158.431 234.597,157.825 232.318,160.794 230.803 C 164.149 229.091,164.165 227.869,160.926 220.400 C 160.592 219.630,160.136 218.550,159.913 218.000 C 159.689 217.450,159.360 216.707,159.181 216.349 C 158.134 214.259,158.268 212.800,159.507 212.800 C 160.164 212.800,160.874 213.025,161.084 213.300 M257.757 213.433 C 257.891 213.781,258.000 216.171,258.000 218.744 C 258.000 224.067,258.421 225.200,260.400 225.200 C 263.091 225.200,263.777 223.854,264.000 218.135 C 264.194 213.146,264.226 212.996,265.122 212.869 C 267.029 212.599,267.200 213.203,267.200 220.220 C 267.200 227.763,266.745 229.018,264.584 227.438 C 263.923 226.954,263.662 226.954,262.727 227.438 C 260.287 228.699,256.997 227.798,255.584 225.481 C 254.795 224.187,254.361 213.772,255.067 213.067 C 255.591 212.542,257.516 212.804,257.757 213.433 M282.786 213.574 C 283.605 215.104,283.312 226.575,282.433 227.370 C 281.822 227.923,281.498 227.974,280.833 227.618 C 279.995 227.169,279.477 213.857,280.267 213.067 C 280.819 212.514,282.388 212.830,282.786 213.574 M194.439 215.690 C 193.026 216.441,192.448 217.524,193.200 218.015 C 194.175 218.652,198.570 218.315,198.708 217.592 C 199.020 215.949,196.264 214.720,194.439 215.690 M231.547 215.788 C 228.959 217.234,229.821 218.385,233.500 218.394 C 235.867 218.400,236.000 218.350,236.000 217.449 C 236.000 215.675,233.451 214.724,231.547 215.788 M178.181 216.658 C 176.527 218.443,176.876 223.237,178.765 224.687 C 181.533 226.812,184.904 223.310,184.218 219.021 C 183.682 215.672,180.316 214.355,178.181 216.658 M337.808 218.956 C 336.259 220.505,336.680 222.973,338.676 224.040 C 341.064 225.319,343.454 221.607,341.733 219.292 C 340.631 217.809,339.087 217.677,337.808 218.956 " stroke="none" fill="#040404" fill-rule="evenodd"/>
    <path id="path1" d="M79.000 169.761 C 77.178 170.211,72.336 172.161,66.888 174.639 C 65.727 175.168,64.697 175.600,64.600 175.600 C 64.503 175.600,63.383 176.071,62.112 176.646 C 58.560 178.252,56.302 179.249,49.902 182.034 C 46.658 183.445,44.003 184.824,44.002 185.099 C 44.001 185.373,45.186 188.613,46.636 192.299 C 48.086 195.984,49.412 199.360,49.583 199.800 C 49.753 200.240,50.081 201.050,50.310 201.600 C 50.540 202.150,52.743 207.685,55.205 213.900 C 59.997 225.991,59.864 225.788,62.239 224.637 C 62.877 224.328,65.380 223.223,67.800 222.182 C 74.349 219.364,74.432 219.256,70.165 219.117 L 66.600 219.000 66.600 214.400 L 66.600 209.800 81.193 209.695 L 95.785 209.590 97.922 207.495 C 102.200 203.300,105.798 194.266,104.518 190.932 C 104.353 190.500,100.755 190.400,85.357 190.400 L 66.400 190.400 66.400 185.600 L 66.400 180.800 84.000 180.800 C 103.414 180.800,102.379 180.963,100.546 178.193 C 96.062 171.415,86.874 167.819,79.000 169.761 M175.300 207.098 C 174.453 207.384,174.589 226.800,175.437 226.800 C 175.788 226.800,176.165 226.454,176.276 226.032 C 176.469 225.293,176.547 225.301,178.298 226.232 C 182.887 228.671,186.616 225.915,186.584 220.107 C 186.552 214.490,182.062 211.508,177.996 214.403 C 176.345 215.578,176.233 215.378,176.000 210.832 C 175.852 207.953,175.669 206.974,175.300 207.098 M147.060 208.401 C 141.321 211.266,140.644 222.208,145.987 225.744 C 149.322 227.951,157.491 227.066,156.544 224.599 C 156.336 224.056,156.123 224.085,154.878 224.819 C 151.146 227.021,146.219 225.439,144.722 221.558 C 141.658 213.617,147.622 206.358,154.409 209.767 C 156.385 210.760,156.911 210.754,156.523 209.744 C 155.761 207.758,149.988 206.939,147.060 208.401 M280.649 208.216 C 280.311 209.096,280.676 209.600,281.651 209.600 C 282.256 209.600,282.424 209.377,282.328 208.704 C 282.175 207.631,281.004 207.291,280.649 208.216 M318.900 208.464 C 317.180 209.299,316.923 209.743,317.569 210.763 C 317.871 211.241,318.147 211.221,319.383 210.635 C 323.030 208.904,326.000 209.860,326.000 212.766 C 326.000 214.541,325.274 215.492,323.672 215.814 C 319.819 216.588,319.226 218.038,322.600 218.436 C 325.252 218.748,325.840 219.048,326.386 220.367 C 327.828 223.848,323.827 226.024,319.392 224.171 C 316.645 223.023,315.884 224.879,318.525 226.283 C 325.121 229.788,332.497 223.252,327.622 218.222 C 326.391 216.952,326.387 216.936,327.175 216.222 C 332.224 211.654,325.439 205.293,318.900 208.464 M336.800 208.433 C 330.842 212.162,331.492 225.155,337.720 226.832 C 342.328 228.073,345.698 225.490,345.661 220.743 C 345.626 216.247,342.118 213.826,338.169 215.573 C 335.761 216.638,335.600 216.620,335.600 215.285 C 335.600 211.196,338.972 208.861,342.666 210.392 C 344.508 211.156,344.944 211.217,345.235 210.756 C 346.726 208.399,339.870 206.511,336.800 208.433 M352.116 208.386 C 347.497 211.202,347.697 223.917,352.400 226.485 C 357.599 229.323,361.400 225.486,361.400 217.400 C 361.400 209.189,357.311 205.219,352.116 208.386 M288.267 209.867 C 288.120 210.013,288.000 210.749,288.000 211.501 C 288.000 212.654,287.811 212.941,286.800 213.322 C 285.354 213.868,285.279 214.298,286.545 214.779 C 287.858 215.278,288.000 215.865,288.000 220.788 C 288.000 225.882,288.421 226.753,290.956 226.906 C 292.905 227.024,293.429 226.106,291.620 225.744 C 289.605 225.341,289.199 224.344,289.206 219.811 C 289.213 215.199,289.324 214.912,291.173 214.733 C 293.024 214.553,293.310 213.600,291.513 213.600 C 289.764 213.600,289.200 212.995,289.200 211.120 C 289.200 209.690,288.877 209.256,288.267 209.867 M357.217 210.700 C 360.873 213.972,359.324 224.800,355.200 224.800 C 349.641 224.800,349.929 209.911,355.494 209.625 C 355.765 209.611,356.541 210.095,357.217 210.700 M193.196 214.100 C 188.261 217.459,189.175 225.956,194.581 226.970 C 197.498 227.517,201.604 226.244,200.495 225.135 C 200.172 224.812,199.880 224.799,199.517 225.092 C 196.657 227.403,191.271 224.780,191.676 221.273 L 191.800 220.200 196.400 220.000 L 201.000 219.800 201.126 218.701 C 201.570 214.844,196.460 211.878,193.196 214.100 M208.654 214.189 C 207.131 215.223,206.400 215.223,206.400 214.189 C 206.400 213.852,206.158 213.718,205.800 213.855 C 204.815 214.233,204.913 226.913,205.900 226.725 C 206.504 226.610,206.627 225.960,206.800 221.977 C 207.060 215.974,207.483 215.242,211.000 214.710 C 211.440 214.644,211.800 214.322,211.800 213.995 C 211.800 213.007,210.255 213.103,208.654 214.189 M216.951 213.775 C 214.734 214.740,213.936 216.544,214.844 218.537 C 215.368 219.687,216.190 220.143,219.325 221.020 C 222.001 221.770,222.858 222.876,222.083 224.578 C 221.356 226.173,218.356 226.356,215.100 225.005 C 214.607 224.800,214.400 224.900,214.400 225.343 C 214.400 227.171,220.781 227.708,222.568 226.030 C 225.095 223.656,223.831 221.013,219.568 219.760 C 217.013 219.008,216.000 218.216,216.000 216.967 C 216.000 214.475,218.804 213.844,222.700 215.459 C 222.981 215.576,223.200 215.380,223.200 215.013 C 223.200 213.550,219.262 212.769,216.951 213.775 M231.208 213.646 C 226.816 215.399,225.750 223.288,229.545 225.950 C 231.518 227.333,235.610 227.459,237.345 226.191 C 238.595 225.277,237.747 224.843,235.932 225.468 C 232.655 226.597,229.577 225.132,229.023 222.181 C 228.632 220.097,228.846 220.000,233.824 220.000 L 238.400 220.000 238.381 218.700 C 238.324 214.887,234.628 212.282,231.208 213.646 M245.022 214.084 C 240.052 216.972,240.932 225.985,246.282 226.989 C 247.999 227.311,250.337 226.948,251.340 226.203 C 252.585 225.278,251.757 224.840,249.945 225.464 C 246.238 226.741,243.200 224.398,243.200 220.262 C 243.200 216.098,246.466 213.539,249.983 214.946 C 251.829 215.685,252.521 215.160,251.007 214.168 C 249.321 213.063,246.839 213.028,245.022 214.084 M274.659 214.186 C 272.833 215.425,272.627 215.435,272.124 214.308 C 271.315 212.496,270.956 214.847,271.118 220.900 C 271.320 228.476,272.158 229.291,272.505 222.248 C 272.786 216.558,273.295 215.386,275.698 214.911 C 276.766 214.700,277.400 214.358,277.400 213.993 C 277.400 213.029,276.244 213.110,274.659 214.186 M159.200 213.893 C 159.200 214.087,160.285 216.935,161.611 220.223 C 164.826 228.193,164.803 229.227,161.366 231.400 C 160.197 232.138,159.709 232.669,159.964 232.924 C 160.582 233.542,162.685 232.468,164.013 230.858 C 165.309 229.285,171.522 214.189,171.062 213.729 C 170.504 213.171,169.620 214.678,167.971 219.000 C 165.335 225.905,165.402 225.905,162.632 218.986 C 160.835 214.495,159.200 212.070,159.200 213.893 M255.759 214.163 C 255.006 216.124,255.796 224.778,256.822 225.804 C 258.291 227.273,260.368 227.506,262.426 226.433 C 263.977 225.625,264.121 225.612,264.586 226.249 C 266.165 228.408,267.483 217.171,265.980 214.363 C 265.182 212.872,264.800 214.061,264.800 218.036 C 264.800 223.972,263.830 225.733,260.560 225.733 C 257.680 225.733,257.433 225.247,257.200 219.120 C 257.009 214.100,256.481 212.282,255.759 214.163 M281.067 213.867 C 280.366 214.567,280.781 226.862,281.500 226.724 C 282.116 226.606,282.214 225.969,282.319 221.395 C 282.471 214.790,282.139 212.795,281.067 213.867 M295.452 213.917 C 295.357 214.073,296.461 217.153,297.906 220.762 L 300.532 227.325 299.635 229.016 C 299.117 229.992,298.158 231.020,297.366 231.446 C 295.934 232.218,295.733 233.095,297.041 232.868 C 298.310 232.648,299.555 231.657,300.529 230.090 C 301.952 227.800,307.241 214.281,306.862 213.902 C 306.351 213.391,305.878 214.222,304.034 218.864 C 301.230 225.926,301.248 225.925,298.587 219.028 C 296.854 214.537,295.963 213.084,295.452 213.917 M182.841 215.314 C 186.098 217.504,185.884 223.815,182.497 225.422 C 179.432 226.876,176.813 224.975,176.488 221.061 C 176.057 215.861,179.296 212.930,182.841 215.314 M197.757 214.853 C 199.055 215.445,200.078 217.507,199.557 218.481 C 199.029 219.467,193.197 219.540,192.229 218.572 C 190.311 216.654,194.914 213.558,197.757 214.853 M235.374 215.019 C 238.496 217.065,237.479 219.200,233.384 219.200 C 229.838 219.200,229.200 218.985,229.200 217.788 C 229.200 215.299,233.119 213.542,235.374 215.019 M342.031 218.369 C 344.540 220.878,343.057 224.800,339.599 224.800 C 337.410 224.800,336.000 223.355,336.000 221.111 C 336.000 219.070,337.722 217.200,339.600 217.200 C 340.461 217.200,341.233 217.571,342.031 218.369 " stroke="none" fill="#e7eae8" fill-rule="evenodd"/>
    <path id="path2" d="M66.400 185.600 L 66.400 190.407 87.500 190.304 L 108.600 190.200 108.600 185.600 L 108.600 181.000 87.500 180.896 L 66.400 180.793 66.400 185.600 M66.584 210.097 C 66.467 210.404,66.422 212.532,66.485 214.827 L 66.600 219.000 89.200 219.200 L 111.800 219.400 114.295 220.753 C 125.315 226.729,126.269 242.601,116.030 249.621 C 112.232 252.225,113.092 252.138,88.800 252.379 L 66.600 252.600 66.487 257.119 L 66.373 261.637 88.887 261.509 C 111.089 261.382,111.435 261.368,113.912 260.477 C 137.113 252.131,136.905 218.938,113.600 210.759 C 110.314 209.606,67.007 208.996,66.584 210.097 " stroke="none" fill="#0dc86a" fill-rule="evenodd"/>
    <path id="path3" d="M79.676 168.740 C 79.168 168.883,80.878 169.007,83.476 169.016 C 91.440 169.042,98.869 173.280,101.808 179.473 C 102.413 180.749,102.465 180.768,105.511 180.883 L 108.600 181.000 108.600 185.700 C 108.600 188.286,108.735 190.401,108.900 190.400 C 109.065 190.400,109.200 188.259,109.200 185.643 C 109.200 180.183,109.357 180.400,105.409 180.400 L 102.883 180.400 101.630 178.447 C 97.014 171.253,86.797 166.735,79.676 168.740 M73.200 171.020 C 70.890 172.013,68.460 173.071,67.800 173.369 C 65.491 174.415,60.945 176.364,59.822 176.792 C 59.199 177.029,58.772 177.305,58.874 177.407 C 58.975 177.509,62.195 176.218,66.029 174.539 C 69.863 172.860,74.260 170.979,75.800 170.357 C 77.340 169.736,78.330 169.224,78.000 169.220 C 77.670 169.216,75.510 170.026,73.200 171.020 M56.453 178.253 C 55.713 178.576,55.201 178.934,55.316 179.049 C 55.431 179.164,56.216 178.893,57.062 178.447 C 58.835 177.511,58.441 177.386,56.453 178.253 M53.200 179.628 C 52.870 179.837,51.906 180.287,51.057 180.628 C 50.208 180.968,49.603 181.336,49.712 181.445 C 49.821 181.554,51.055 181.109,52.455 180.456 C 53.855 179.803,54.730 179.264,54.400 179.258 C 54.070 179.252,53.530 179.418,53.200 179.628 M45.900 182.875 C 42.487 184.432,42.474 184.022,46.235 193.419 C 47.905 197.588,49.416 201.450,49.593 202.000 C 50.262 204.079,50.830 205.304,51.031 205.102 C 51.146 204.988,49.521 200.602,47.420 195.355 C 42.805 183.832,42.871 184.716,46.500 183.021 C 48.095 182.275,49.220 181.660,49.000 181.654 C 48.780 181.648,47.385 182.197,45.900 182.875 M105.027 192.842 C 104.875 194.185,104.837 195.370,104.942 195.476 C 105.048 195.581,105.263 194.617,105.421 193.334 C 105.579 192.050,105.909 190.868,106.154 190.706 C 106.439 190.518,106.367 190.410,105.952 190.406 C 105.454 190.401,105.239 190.967,105.027 192.842 M104.276 197.216 C 103.761 199.812,101.291 204.308,99.029 206.768 C 96.454 209.570,96.441 209.602,97.900 209.594 C 98.683 209.590,98.841 209.487,98.448 209.238 C 98.018 208.966,98.348 208.346,99.943 206.430 C 102.438 203.432,105.037 198.040,104.714 196.532 C 104.615 196.068,104.455 196.320,104.276 197.216 M174.267 206.667 C 174.120 206.813,174.000 211.471,174.000 217.018 C 174.000 228.270,174.120 228.811,176.326 227.507 C 177.292 226.937,177.517 226.934,178.562 227.481 C 183.569 230.105,188.925 223.992,187.205 217.615 C 186.667 215.619,184.157 212.790,182.947 212.816 C 182.446 212.826,182.608 213.009,183.441 213.372 C 187.838 215.286,188.361 223.583,184.274 226.572 C 182.933 227.552,180.072 227.651,178.082 226.785 C 176.989 226.309,176.708 226.302,176.434 226.745 C 176.253 227.038,175.766 227.214,175.352 227.134 C 174.640 226.997,174.600 226.459,174.600 216.995 L 174.600 207.000 175.500 206.872 C 176.380 206.747,176.400 206.831,176.400 210.572 C 176.400 214.711,176.480 214.827,178.490 213.601 C 179.313 213.100,179.549 212.802,179.124 212.801 C 178.752 212.801,178.336 212.980,178.200 213.200 C 177.561 214.233,177.200 213.356,177.200 210.774 C 177.200 207.062,175.813 205.120,174.267 206.667 M149.700 207.087 C 150.305 207.178,151.295 207.178,151.900 207.087 C 152.505 206.995,152.010 206.920,150.800 206.920 C 149.590 206.920,149.095 206.995,149.700 207.087 M280.080 207.280 C 278.721 208.639,280.248 210.726,282.237 210.226 C 283.016 210.031,283.200 209.727,283.200 208.635 C 283.200 206.902,281.288 206.072,280.080 207.280 M322.105 207.087 C 322.714 207.179,323.614 207.177,324.105 207.082 C 324.597 206.987,324.100 206.911,323.000 206.914 C 321.900 206.917,321.497 206.995,322.105 207.087 M339.305 207.087 C 339.914 207.179,340.814 207.177,341.305 207.082 C 341.797 206.987,341.300 206.911,340.200 206.914 C 339.100 206.917,338.697 206.995,339.305 207.087 M354.300 207.082 C 354.795 207.178,355.605 207.178,356.100 207.082 C 356.595 206.987,356.190 206.909,355.200 206.909 C 354.210 206.909,353.805 206.987,354.300 207.082 M146.600 207.665 C 139.587 211.526,140.034 224.355,147.287 227.380 C 151.602 229.179,158.673 226.752,157.190 223.981 C 156.700 223.065,155.917 223.174,153.828 224.448 C 152.202 225.440,152.823 225.409,154.801 224.399 C 156.349 223.610,156.377 223.609,156.784 224.371 C 158.322 227.243,149.472 228.667,145.860 226.129 C 140.234 222.175,140.849 211.037,146.857 208.064 C 147.816 207.589,148.330 207.206,148.000 207.212 C 147.670 207.219,147.040 207.423,146.600 207.665 M154.706 207.992 C 156.467 208.791,157.051 209.568,156.659 210.589 C 156.470 211.082,156.087 211.018,154.317 210.193 C 151.299 208.788,147.393 209.270,146.204 211.194 C 145.828 211.802,146.374 211.683,147.047 211.011 C 148.653 209.405,152.110 209.373,154.937 210.938 C 156.546 211.829,157.600 211.350,157.600 209.729 C 157.600 209.089,154.677 207.197,153.708 207.209 C 153.319 207.214,153.768 207.566,154.706 207.992 M282.167 207.443 C 282.878 207.715,283.028 209.412,282.377 209.814 C 281.490 210.362,280.000 209.617,280.000 208.626 C 280.000 207.435,280.886 206.951,282.167 207.443 M317.900 208.088 C 314.993 209.773,316.372 213.032,319.371 211.567 C 322.436 210.071,325.200 210.680,325.200 212.851 C 325.200 214.335,324.223 215.200,322.545 215.200 C 320.550 215.200,319.600 215.824,319.600 217.134 C 319.600 218.658,320.279 219.200,322.191 219.200 C 325.461 219.200,327.067 222.379,324.500 223.771 C 323.825 224.138,323.646 224.374,324.038 224.384 C 327.196 224.463,326.539 219.386,323.336 218.955 C 320.072 218.516,319.941 218.449,320.075 217.286 C 320.180 216.375,320.457 216.147,321.800 215.868 C 324.221 215.365,325.386 214.672,325.533 213.646 C 326.015 210.291,323.693 209.302,319.509 211.080 C 318.299 211.594,317.904 211.618,317.409 211.208 C 316.034 210.066,316.855 208.714,319.496 207.772 C 320.368 207.461,320.664 207.232,320.200 207.227 C 319.760 207.222,318.725 207.610,317.900 208.088 M326.351 207.884 C 329.174 209.274,330.017 212.685,328.200 215.362 C 326.979 217.161,326.979 217.177,328.194 218.330 C 333.502 223.363,325.408 229.993,318.156 226.552 C 315.978 225.519,316.067 222.890,318.266 223.310 C 318.902 223.432,319.122 223.362,318.876 223.116 C 317.451 221.691,315.237 224.494,316.599 225.999 C 322.049 232.021,334.025 224.591,328.853 218.396 L 327.707 217.023 328.553 215.878 C 330.639 213.057,328.706 207.170,325.706 207.209 C 325.280 207.215,325.536 207.482,326.351 207.884 M335.722 208.100 C 331.304 211.238,330.483 221.110,334.267 225.606 C 337.227 229.125,343.034 228.752,345.571 224.881 C 348.020 221.144,345.691 214.396,341.953 214.401 C 341.649 214.401,342.026 214.716,342.792 215.101 C 348.840 218.139,346.498 227.600,339.698 227.600 C 331.371 227.600,329.225 211.873,337.000 207.829 C 337.660 207.486,337.927 207.204,337.594 207.202 C 337.261 207.201,336.419 207.605,335.722 208.100 M344.015 208.100 C 347.404 209.809,346.301 212.344,342.821 210.847 C 339.544 209.437,336.926 210.695,336.193 214.030 C 335.825 215.706,336.321 215.999,338.000 215.096 L 339.400 214.343 338.100 214.603 C 336.597 214.904,336.406 214.323,337.385 212.429 C 338.278 210.702,341.309 210.151,342.976 211.413 C 344.623 212.658,346.400 211.770,346.400 209.700 C 346.400 208.952,343.849 207.200,342.761 207.200 C 342.469 207.200,343.034 207.605,344.015 208.100 M350.902 208.305 C 346.081 212.809,346.778 224.708,352.014 227.281 C 358.746 230.588,364.489 223.007,362.376 213.600 C 361.584 210.072,358.995 206.735,357.513 207.331 C 357.157 207.474,357.191 207.547,357.622 207.568 C 359.946 207.687,362.043 212.259,362.069 217.265 C 362.108 224.633,359.005 228.403,353.720 227.411 C 347.187 226.186,346.029 211.698,352.165 207.956 C 352.929 207.490,353.149 207.202,352.742 207.201 C 352.381 207.201,351.552 207.697,350.902 208.305 M287.450 209.407 C 287.092 209.765,286.800 210.674,286.800 211.429 C 286.800 212.629,286.674 212.800,285.787 212.800 C 283.911 212.800,284.048 215.246,285.941 215.528 C 286.756 215.649,286.800 215.867,286.800 219.779 C 286.800 224.561,287.396 226.467,289.182 227.390 C 290.929 228.294,293.072 228.187,293.617 227.169 C 294.257 225.972,293.807 225.191,292.513 225.254 C 291.534 225.302,291.511 225.330,292.324 225.485 C 294.148 225.834,293.296 227.406,291.304 227.366 C 288.144 227.302,287.206 225.452,287.202 219.279 L 287.200 215.558 285.980 215.133 C 284.533 214.629,284.528 213.548,285.971 213.207 C 286.720 213.030,287.034 212.576,287.369 211.189 C 287.963 208.725,289.335 208.602,289.530 210.995 C 289.679 212.823,290.074 213.185,291.928 213.194 C 294.055 213.204,293.602 214.925,291.400 215.200 L 289.800 215.400 289.684 219.178 C 289.571 222.868,290.041 225.200,290.898 225.200 C 291.118 225.200,291.066 224.920,290.782 224.578 C 290.204 223.882,289.759 218.214,290.158 216.626 C 290.370 215.779,290.650 215.600,291.759 215.600 C 292.498 215.600,293.336 215.319,293.621 214.975 C 294.277 214.185,294.197 214.048,297.024 220.857 C 299.940 227.884,299.840 229.449,296.372 231.012 C 294.639 231.794,294.357 232.915,295.684 233.747 C 298.159 235.298,301.023 231.851,304.779 222.800 C 308.393 214.092,308.676 212.686,306.778 212.870 C 305.469 212.997,305.404 213.097,303.474 217.909 C 301.634 222.497,300.400 223.909,300.400 221.429 C 300.400 220.762,297.615 213.914,297.077 213.259 C 296.794 212.913,296.120 212.784,295.217 212.903 C 291.675 213.367,290.220 212.781,290.000 210.800 C 289.777 208.789,288.671 208.186,287.450 209.407 M52.828 209.851 C 52.788 210.494,54.010 213.324,54.232 213.102 C 54.334 213.000,54.066 212.125,53.637 211.158 C 53.208 210.191,52.844 209.603,52.828 209.851 M108.505 209.887 C 109.114 209.979,110.014 209.977,110.505 209.882 C 110.997 209.787,110.500 209.711,109.400 209.714 C 108.300 209.717,107.897 209.795,108.505 209.887 M114.003 210.923 C 119.768 212.982,125.351 217.764,128.105 223.000 C 128.914 224.540,129.580 225.620,129.584 225.400 C 129.656 221.137,118.745 211.279,112.800 210.238 C 111.995 210.097,112.507 210.388,114.003 210.923 M353.932 210.615 C 351.011 212.192,351.069 223.403,354.004 224.323 C 354.351 224.432,354.184 224.058,353.605 223.428 C 352.248 221.952,351.900 214.684,353.078 212.400 C 353.962 210.686,355.807 210.282,356.956 211.551 C 358.693 213.471,358.502 221.899,356.682 223.652 C 356.136 224.177,356.029 224.435,356.400 224.329 C 358.888 223.615,359.436 212.763,357.080 210.881 C 356.155 210.142,354.990 210.044,353.932 210.615 M158.400 213.651 C 158.400 214.508,158.427 214.516,158.942 213.811 C 159.723 212.744,160.695 213.288,161.585 215.293 C 162.002 216.232,162.348 216.730,162.353 216.400 C 162.376 214.825,161.003 213.000,159.699 212.875 C 158.581 212.767,158.400 212.875,158.400 213.651 M169.792 213.106 C 169.264 213.486,168.312 215.645,168.562 215.895 C 168.667 216.000,169.024 215.437,169.356 214.643 C 170.008 213.084,171.595 212.560,171.606 213.900 C 171.617 215.238,165.071 230.420,164.029 231.473 C 162.134 233.387,159.200 234.057,159.200 232.576 C 159.200 232.280,159.835 231.736,160.611 231.368 C 162.053 230.684,163.613 229.046,163.584 228.246 C 163.575 228.001,163.300 228.294,162.972 228.898 C 162.645 229.502,161.653 230.365,160.769 230.816 C 157.822 232.320,158.448 234.592,161.553 233.661 C 164.331 232.829,165.192 231.421,169.656 220.423 C 172.493 213.429,172.536 211.130,169.792 213.106 M192.050 213.873 C 188.021 217.047,188.325 224.516,192.585 227.012 C 196.083 229.062,202.265 227.525,201.406 224.819 C 201.100 223.853,200.187 223.791,198.800 224.642 C 198.129 225.054,198.063 225.166,198.600 224.982 C 200.529 224.324,200.797 224.328,201.062 225.017 C 201.660 226.576,197.789 228.025,194.614 227.429 C 188.839 226.346,187.701 216.673,193.000 213.708 C 193.880 213.216,194.330 212.812,194.000 212.811 C 193.670 212.810,192.792 213.288,192.050 213.873 M198.241 213.372 C 199.863 214.078,201.105 215.866,201.444 217.983 C 201.805 220.245,201.504 220.386,196.300 220.394 L 192.000 220.400 192.000 221.569 C 192.000 222.778,193.694 225.202,194.536 225.198 C 194.791 225.197,194.505 224.792,193.901 224.298 C 193.296 223.804,192.689 222.815,192.551 222.100 L 192.300 220.800 196.670 220.800 C 201.427 220.800,202.000 220.575,202.000 218.707 C 202.000 216.251,199.444 212.774,197.669 212.816 C 197.301 212.824,197.559 213.075,198.241 213.372 M204.667 213.067 C 203.488 214.245,204.583 228.000,205.855 228.000 C 207.353 228.000,207.600 227.181,207.520 222.486 L 207.440 217.800 207.220 222.400 C 207.001 226.981,206.996 227.000,206.000 227.000 L 205.000 227.000 205.000 220.205 C 205.000 214.046,205.066 213.398,205.702 213.276 C 206.120 213.195,206.524 213.464,206.702 213.942 C 206.995 214.729,207.028 214.726,208.600 213.773 C 209.506 213.224,209.907 212.803,209.524 212.802 C 209.152 212.801,208.736 212.980,208.600 213.200 C 208.464 213.420,208.003 213.600,207.576 213.600 C 207.149 213.600,206.800 213.420,206.800 213.200 C 206.800 212.755,205.085 212.648,204.667 213.067 M212.119 213.334 C 212.562 214.488,211.993 215.200,210.627 215.200 C 209.421 215.200,207.600 216.514,207.600 217.384 C 207.600 217.567,208.041 217.241,208.581 216.658 C 209.199 215.991,209.983 215.600,210.701 215.600 C 212.476 215.600,213.617 213.752,212.332 212.958 C 212.017 212.764,211.948 212.887,212.119 213.334 M215.013 214.213 C 212.160 217.067,213.582 220.165,218.405 221.601 C 221.342 222.476,222.159 223.409,221.133 224.719 C 220.653 225.332,220.670 225.345,221.300 224.851 C 222.923 223.578,221.781 222.032,218.600 221.196 C 213.605 219.883,212.371 215.704,216.357 213.598 C 217.204 213.150,217.516 212.828,217.113 212.818 C 216.736 212.808,215.791 213.436,215.013 214.213 M222.000 213.501 C 223.586 214.293,224.206 216.000,222.908 216.000 C 222.497 216.000,221.952 215.792,221.699 215.539 C 221.046 214.886,217.852 214.893,217.062 215.549 C 215.405 216.923,216.715 218.850,219.655 219.365 C 226.084 220.490,225.346 227.599,218.800 227.599 C 216.451 227.599,214.242 226.500,214.065 225.244 C 213.924 224.250,214.133 224.227,216.200 225.013 C 216.805 225.244,216.894 225.202,216.564 224.843 C 215.565 223.755,213.800 224.108,213.800 225.396 C 213.800 227.762,219.427 228.956,222.305 227.201 C 226.312 224.758,225.129 220.483,220.044 219.035 C 217.207 218.227,216.686 217.886,216.866 216.955 C 217.130 215.579,218.879 215.101,221.005 215.822 C 223.233 216.579,224.000 216.374,224.000 215.023 C 224.000 214.038,222.394 212.799,221.120 212.801 C 220.834 212.801,221.230 213.116,222.000 213.501 M229.292 213.840 C 228.006 214.853,226.800 216.694,226.800 217.643 C 226.800 217.909,227.219 217.333,227.730 216.363 C 228.310 215.264,229.251 214.264,230.230 213.707 C 231.094 213.215,231.530 212.812,231.200 212.811 C 230.870 212.810,230.011 213.273,229.292 213.840 M236.041 213.708 C 237.738 214.842,238.853 216.969,238.709 218.800 L 238.600 220.200 234.000 220.400 L 229.400 220.600 229.463 221.935 C 229.523 223.220,230.897 225.200,231.728 225.200 C 231.942 225.200,231.641 224.759,231.058 224.219 C 230.476 223.680,229.973 222.960,229.940 222.619 C 229.907 222.279,229.862 221.775,229.840 221.500 C 229.811 221.139,231.014 220.944,234.158 220.800 C 239.193 220.569,239.468 220.380,239.029 217.454 C 238.729 215.452,236.620 212.800,235.328 212.800 C 234.943 212.800,235.231 213.167,236.041 213.708 M244.183 213.545 C 242.896 214.330,241.592 216.025,241.612 216.886 C 241.619 217.169,241.823 217.040,242.067 216.600 C 242.843 215.196,244.164 213.914,245.400 213.365 C 246.060 213.071,246.330 212.825,246.000 212.817 C 245.670 212.809,244.852 213.137,244.183 213.545 M250.715 213.440 C 253.478 214.647,252.760 216.426,249.902 215.455 C 247.121 214.511,245.237 215.307,244.145 217.887 C 242.576 221.593,244.790 225.697,248.280 225.554 C 249.232 225.515,249.175 225.464,247.901 225.217 C 242.637 224.196,242.875 215.600,248.168 215.600 C 249.091 215.600,250.194 215.854,250.618 216.164 C 251.567 216.857,252.800 216.321,252.800 215.215 C 252.800 214.342,251.000 212.784,250.046 212.833 C 249.691 212.851,249.992 213.124,250.715 213.440 M255.067 213.067 C 254.361 213.772,254.795 224.187,255.584 225.481 C 256.997 227.798,260.287 228.699,262.727 227.438 C 263.662 226.954,263.923 226.954,264.584 227.438 C 266.745 229.018,267.200 227.763,267.200 220.220 C 267.200 213.203,267.029 212.599,265.122 212.869 C 264.226 212.996,264.194 213.146,264.000 218.135 C 263.804 223.158,263.775 223.292,262.678 224.235 C 262.060 224.766,261.714 225.200,261.908 225.200 C 263.457 225.200,264.200 223.135,264.400 218.273 C 264.579 213.917,264.679 213.393,265.352 213.265 C 266.605 213.026,266.787 213.941,266.794 220.513 C 266.801 227.366,266.623 227.883,264.627 226.815 C 263.875 226.412,263.486 226.438,262.474 226.962 C 259.947 228.269,256.749 227.332,255.774 224.999 C 254.820 222.717,255.119 213.464,256.152 213.266 C 257.365 213.033,257.587 213.923,257.594 219.038 C 257.600 223.506,257.667 223.934,258.472 224.638 L 259.345 225.400 258.672 224.411 C 258.137 223.624,258.000 222.467,258.000 218.744 C 258.000 216.171,257.891 213.781,257.757 213.433 C 257.516 212.804,255.591 212.542,255.067 213.067 M270.667 213.067 C 270.520 213.213,270.400 213.608,270.400 213.943 C 270.400 214.413,270.529 214.376,270.964 213.782 C 271.507 213.039,271.557 213.037,272.321 213.729 C 273.086 214.421,273.171 214.417,274.652 213.624 C 276.283 212.749,275.944 212.478,274.208 213.269 C 273.420 213.628,273.068 213.628,272.709 213.269 C 272.195 212.755,271.088 212.646,270.667 213.067 M277.949 213.335 C 278.695 214.238,277.893 215.200,276.395 215.200 C 273.755 215.200,272.871 217.354,272.824 223.900 C 272.800 227.138,272.781 227.200,271.810 227.200 L 270.821 227.200 270.699 221.100 L 270.578 215.000 270.489 221.086 C 270.404 226.890,270.439 227.193,271.233 227.618 C 273.022 228.575,273.600 227.234,273.600 222.120 C 273.600 216.973,274.260 215.600,276.733 215.600 C 278.610 215.600,279.628 213.406,278.000 212.868 C 277.486 212.698,277.478 212.765,277.949 213.335 M280.267 213.067 C 279.477 213.857,279.995 227.169,280.833 227.618 C 281.498 227.974,281.822 227.923,282.433 227.370 C 283.312 226.575,283.605 215.104,282.786 213.574 C 282.388 212.830,280.819 212.514,280.267 213.067 M282.400 220.228 L 282.400 227.256 281.500 227.128 C 280.615 227.002,280.598 226.894,280.489 220.616 C 280.367 213.555,280.420 213.200,281.587 213.200 C 282.373 213.200,282.400 213.430,282.400 220.228 M296.785 213.782 C 297.050 214.102,298.038 216.397,298.979 218.882 C 301.126 224.548,301.276 224.533,303.768 218.400 C 305.447 214.268,305.956 213.378,306.700 213.272 C 308.067 213.078,307.902 213.729,304.407 222.305 C 300.664 231.493,297.912 234.953,295.765 233.171 C 295.006 232.541,295.053 232.028,295.900 231.722 C 300.291 230.138,300.517 228.483,297.403 220.717 C 295.971 217.146,294.800 213.994,294.800 213.712 C 294.800 213.015,296.189 213.063,296.785 213.782 M54.400 213.919 C 54.400 214.794,59.102 225.777,59.616 226.101 C 60.027 226.361,60.917 226.156,62.505 225.438 C 63.767 224.867,65.795 223.950,67.012 223.400 C 68.228 222.850,69.286 222.400,69.362 222.400 C 69.914 222.400,75.656 219.522,75.472 219.338 C 75.343 219.210,74.104 219.659,72.719 220.337 C 67.696 222.795,61.035 225.600,60.227 225.598 C 59.533 225.597,59.018 224.629,57.034 219.598 C 54.836 214.028,54.400 213.087,54.400 213.919 M144.578 214.978 C 144.427 215.781,144.394 216.527,144.504 216.637 C 144.614 216.747,144.827 216.181,144.978 215.378 C 145.128 214.575,145.162 213.828,145.052 213.718 C 144.942 213.608,144.728 214.175,144.578 214.978 M179.600 215.074 C 178.763 215.392,177.200 216.860,177.200 217.328 C 177.200 217.542,177.641 217.241,178.181 216.658 C 179.449 215.291,181.726 215.203,183.074 216.470 C 183.583 216.948,184.000 217.132,184.000 216.879 C 184.000 215.873,180.874 214.591,179.600 215.074 M193.330 216.190 C 191.937 217.583,191.860 218.405,193.124 218.394 C 193.706 218.389,193.716 218.334,193.200 218.005 C 191.764 217.090,194.742 214.948,196.818 215.404 C 198.088 215.683,199.002 216.898,198.643 217.831 C 198.423 218.406,198.856 218.611,199.317 218.149 C 199.699 217.768,198.493 215.678,197.622 215.212 C 196.161 214.430,194.774 214.746,193.330 216.190 M230.831 215.836 C 229.473 216.978,229.177 218.404,230.300 218.394 C 230.815 218.389,230.864 218.302,230.486 218.062 C 229.096 217.179,232.028 214.919,233.941 215.400 C 235.429 215.773,236.000 216.348,236.000 217.473 C 236.000 218.009,236.163 218.346,236.362 218.223 C 236.952 217.859,236.378 216.441,235.297 215.590 C 233.922 214.509,232.301 214.598,230.831 215.836 M167.020 219.220 C 166.410 220.774,165.993 222.126,166.092 222.225 C 166.191 222.324,166.770 221.134,167.380 219.580 C 167.990 218.026,168.407 216.674,168.308 216.575 C 168.209 216.476,167.630 217.666,167.020 219.220 M162.430 217.500 C 162.490 218.111,163.942 220.984,163.970 220.549 C 164.007 219.990,162.861 217.200,162.595 217.200 C 162.488 217.200,162.413 217.335,162.430 217.500 M184.216 218.709 C 184.616 220.791,184.029 223.210,182.854 224.317 C 182.275 224.865,182.059 225.231,182.376 225.131 C 184.105 224.586,185.494 219.863,184.429 218.147 C 184.039 217.519,184.005 217.608,184.216 218.709 M241.043 218.233 C 240.706 219.109,240.749 222.101,241.106 222.662 C 241.268 222.916,241.400 221.881,241.400 220.362 C 241.400 217.341,241.395 217.314,241.043 218.233 M338.092 217.868 C 335.886 218.755,336.268 224.448,338.529 224.387 C 338.806 224.380,338.739 224.174,338.365 223.887 C 335.914 222.005,336.858 218.000,339.753 218.000 C 342.180 218.000,343.186 222.051,341.168 223.700 C 340.697 224.085,340.498 224.400,340.727 224.400 C 340.955 224.400,341.532 223.905,342.009 223.300 C 344.220 220.496,341.373 216.548,338.092 217.868 M144.406 219.033 C 144.409 219.675,144.596 220.470,144.821 220.800 C 145.114 221.230,145.154 220.946,144.962 219.800 C 144.630 217.816,144.398 217.496,144.406 219.033 M176.872 220.120 C 176.794 222.631,177.501 224.524,178.685 224.976 C 179.237 225.187,179.196 225.059,178.505 224.414 C 177.507 223.482,177.270 222.716,177.077 219.800 L 176.944 217.800 176.872 220.120 M226.501 220.200 C 226.505 221.080,226.587 221.393,226.683 220.895 C 226.779 220.398,226.775 219.678,226.675 219.295 C 226.575 218.913,226.496 219.320,226.501 220.200 M110.800 219.757 C 111.790 220.059,112.960 220.428,113.400 220.578 C 113.898 220.748,113.820 220.628,113.192 220.261 C 112.637 219.936,111.467 219.567,110.592 219.440 L 109.000 219.209 110.800 219.757 M115.200 221.483 C 117.812 223.356,119.702 225.515,120.996 228.101 C 121.768 229.645,122.400 230.697,122.400 230.440 C 122.400 228.477,118.095 222.860,115.534 221.483 C 114.251 220.793,114.238 220.793,115.200 221.483 M164.000 221.358 C 164.000 222.614,165.324 223.969,165.800 223.200 C 165.936 222.980,165.767 222.800,165.424 222.800 C 165.081 222.800,164.800 222.541,164.800 222.224 C 164.800 221.907,164.620 221.536,164.400 221.400 C 164.180 221.264,164.000 221.245,164.000 221.358 M145.211 221.714 C 145.175 222.779,148.441 225.692,149.021 225.112 C 149.102 225.031,148.582 224.649,147.865 224.263 C 147.148 223.877,146.260 223.075,145.891 222.481 C 145.523 221.886,145.216 221.541,145.211 221.714 M226.809 222.906 C 226.779 225.269,230.421 228.000,233.600 228.000 C 237.087 228.000,240.587 225.061,238.193 224.142 C 237.540 223.891,235.033 224.766,235.388 225.121 C 235.505 225.238,236.055 225.092,236.609 224.795 C 237.889 224.110,238.845 224.801,238.152 225.911 C 236.243 228.970,229.273 227.606,227.562 223.840 C 227.153 222.938,226.814 222.518,226.809 222.906 M241.600 223.910 C 241.600 225.650,245.160 228.000,247.796 228.000 C 251.365 228.000,254.653 225.042,252.015 224.205 C 251.247 223.961,249.341 224.674,249.727 225.060 C 249.834 225.168,250.295 225.022,250.751 224.738 C 251.742 224.119,252.655 224.757,252.259 225.791 C 251.182 228.596,244.638 227.932,242.500 224.800 C 242.005 224.075,241.600 223.675,241.600 223.910 M320.000 224.000 C 320.330 224.213,320.870 224.388,321.200 224.388 C 321.733 224.388,321.733 224.345,321.200 224.000 C 320.870 223.787,320.330 223.612,320.000 223.612 C 319.467 223.612,319.467 223.655,320.000 224.000 M150.100 225.476 C 150.485 225.576,151.115 225.576,151.500 225.476 C 151.885 225.375,151.570 225.293,150.800 225.293 C 150.030 225.293,149.715 225.375,150.100 225.476 M195.700 225.476 C 196.085 225.576,196.715 225.576,197.100 225.476 C 197.485 225.375,197.170 225.293,196.400 225.293 C 195.630 225.293,195.315 225.375,195.700 225.476 M217.900 225.482 C 218.395 225.578,219.205 225.578,219.700 225.482 C 220.195 225.387,219.790 225.309,218.800 225.309 C 217.810 225.309,217.405 225.387,217.900 225.482 M232.900 225.476 C 233.285 225.576,233.915 225.576,234.300 225.476 C 234.685 225.375,234.370 225.293,233.600 225.293 C 232.830 225.293,232.515 225.375,232.900 225.476 M130.673 230.000 C 130.804 230.990,130.976 231.875,131.056 231.967 C 131.357 232.314,131.128 229.764,130.790 229.000 C 130.553 228.466,130.514 228.798,130.673 230.000 M122.600 235.800 C 122.600 238.356,122.717 240.032,122.860 239.524 C 123.003 239.016,123.120 237.340,123.120 235.800 C 123.120 234.260,123.003 232.584,122.860 232.076 C 122.717 231.568,122.600 233.244,122.600 235.800 M131.337 235.800 C 131.339 237.560,131.409 238.230,131.493 237.289 C 131.578 236.349,131.577 234.909,131.491 234.089 C 131.405 233.270,131.336 234.040,131.337 235.800 M130.854 240.400 C 130.819 240.950,130.696 241.850,130.583 242.400 L 130.377 243.400 130.807 242.415 C 131.043 241.874,131.165 240.974,131.078 240.415 L 130.920 239.400 130.854 240.400 M121.103 243.190 C 119.253 247.127,115.981 249.921,111.400 251.474 C 109.875 251.992,109.863 252.007,111.160 251.806 C 114.812 251.241,119.434 247.479,121.379 243.487 C 121.999 242.214,122.437 241.104,122.351 241.018 C 122.266 240.933,121.704 241.910,121.103 243.190 M129.513 245.381 C 129.142 246.381,128.917 247.200,129.014 247.200 C 129.293 247.200,130.431 244.294,130.303 243.909 C 130.239 243.718,129.884 244.380,129.513 245.381 M125.858 251.824 C 124.134 254.153,122.465 255.727,119.185 258.117 C 118.238 258.807,118.253 258.807,119.587 258.117 C 121.274 257.244,126.326 252.261,127.323 250.487 C 128.409 248.553,128.009 248.918,125.858 251.824 M66.191 252.900 C 66.067 253.395,66.019 255.600,66.083 257.800 L 66.200 261.800 87.453 261.903 C 99.142 261.960,109.365 261.870,110.171 261.703 C 110.976 261.537,101.451 261.453,89.004 261.519 L 66.373 261.637 66.487 257.119 L 66.600 252.600 88.000 252.395 L 109.400 252.189 87.908 252.095 L 66.415 252.000 66.191 252.900 M113.800 260.445 C 112.186 261.045,112.070 261.143,113.200 260.947 C 113.970 260.814,115.050 260.464,115.600 260.169 C 116.971 259.433,116.199 259.551,113.800 260.445 " stroke="none" fill="#5e5e5e" fill-rule="evenodd"/>
    <path id="path4" d="M79.296 169.224 C 77.118 169.653,67.039 173.919,68.050 173.984 C 68.187 173.993,70.347 173.123,72.850 172.051 C 84.851 166.912,96.776 169.900,101.031 179.113 C 101.826 180.835,102.478 181.383,102.125 180.033 C 101.796 178.777,98.327 174.730,96.190 173.110 C 91.334 169.429,85.298 168.040,79.296 169.224 M64.600 175.224 C 63.280 175.876,62.470 176.337,62.800 176.249 C 63.992 175.929,67.009 174.672,67.380 174.340 C 68.113 173.684,67.006 174.037,64.600 175.224 M59.600 177.301 C 58.610 177.760,54.651 179.510,50.801 181.189 C 46.039 183.267,43.760 184.464,43.669 184.936 C 43.529 185.666,48.814 199.319,49.120 199.014 C 49.217 198.916,48.105 195.858,46.648 192.217 C 45.192 188.576,44.001 185.373,44.002 185.099 C 44.003 184.824,46.658 183.445,49.902 182.034 C 53.146 180.623,56.930 178.958,58.310 178.334 C 59.691 177.710,60.985 177.200,61.186 177.200 C 61.388 177.200,61.664 177.020,61.800 176.800 C 62.149 176.235,61.662 176.346,59.600 177.301 M104.541 193.300 C 104.488 195.918,104.515 196.025,104.812 194.400 C 105.240 192.058,105.276 190.400,104.900 190.400 C 104.735 190.400,104.574 191.705,104.541 193.300 M103.829 197.429 C 103.681 198.015,103.638 198.572,103.732 198.666 C 103.827 198.760,104.024 198.358,104.171 197.771 C 104.319 197.185,104.362 196.628,104.268 196.534 C 104.173 196.440,103.976 196.842,103.829 197.429 M101.553 202.892 C 101.078 203.822,99.590 205.738,98.245 207.149 C 96.900 208.559,95.989 209.643,96.220 209.557 C 97.567 209.054,103.578 201.200,102.616 201.200 C 102.506 201.200,102.028 201.961,101.553 202.892 M50.950 204.200 C 51.103 204.640,53.066 209.633,55.314 215.295 C 60.064 227.264,59.100 226.466,65.427 223.662 C 67.832 222.596,70.141 221.602,70.557 221.453 C 70.974 221.303,71.227 221.093,71.119 220.986 C 70.942 220.808,63.555 223.871,61.905 224.806 C 59.997 225.888,59.888 225.716,55.403 214.500 C 53.050 208.615,51.023 203.710,50.899 203.600 C 50.774 203.490,50.797 203.760,50.950 204.200 M174.580 207.308 C 173.922 209.022,174.622 226.994,175.352 227.134 C 175.766 227.214,176.253 227.038,176.434 226.745 C 176.709 226.300,176.984 226.301,178.082 226.751 C 181.701 228.234,186.407 226.603,186.399 223.869 C 186.398 223.611,186.059 223.954,185.646 224.632 C 184.114 227.143,181.204 227.777,178.298 226.232 C 176.547 225.301,176.469 225.293,176.276 226.032 C 176.165 226.454,175.788 226.800,175.437 226.800 C 174.589 226.800,174.454 207.406,175.300 207.065 C 175.692 206.907,175.689 206.856,175.287 206.832 C 175.006 206.814,174.687 207.029,174.580 207.308 M176.144 210.400 C 176.144 212.490,176.212 213.345,176.294 212.300 C 176.376 211.255,176.376 209.545,176.294 208.500 C 176.212 207.455,176.144 208.310,176.144 210.400 M146.857 208.064 C 145.230 208.869,142.798 211.565,142.801 212.560 C 142.802 212.802,143.187 212.370,143.656 211.600 C 145.329 208.855,146.870 207.990,150.800 207.590 L 153.400 207.326 151.000 207.263 C 149.251 207.218,148.127 207.435,146.857 208.064 M280.500 207.465 C 279.567 207.841,279.915 209.563,280.977 209.830 C 282.244 210.148,282.800 209.778,282.800 208.619 C 282.800 207.460,281.780 206.948,280.500 207.465 M321.907 207.490 C 322.626 207.579,323.706 207.577,324.307 207.486 C 324.908 207.395,324.320 207.322,323.000 207.324 C 321.680 207.326,321.188 207.401,321.907 207.490 M337.000 207.829 C 330.951 210.975,330.546 223.714,336.400 226.726 C 341.142 229.166,346.171 226.219,346.171 221.000 C 346.171 216.182,341.813 213.091,337.898 215.133 C 336.215 216.010,335.818 215.740,336.204 213.981 C 336.926 210.695,339.563 209.446,342.821 210.847 C 344.864 211.726,344.917 211.729,345.464 210.980 C 347.318 208.445,340.613 205.950,337.000 207.829 M352.165 207.933 C 346.033 211.789,347.182 226.185,353.720 227.411 C 358.958 228.394,362.080 224.656,362.080 217.400 C 362.080 209.478,357.167 204.787,352.165 207.933 M154.600 208.259 C 155.260 208.604,156.025 209.171,156.300 209.519 C 156.607 209.908,156.800 209.966,156.800 209.671 C 156.800 209.168,154.497 207.592,153.800 207.618 C 153.580 207.625,153.940 207.914,154.600 208.259 M282.328 208.704 C 282.424 209.377,282.256 209.600,281.651 209.600 C 280.676 209.600,280.311 209.096,280.649 208.216 C 281.004 207.291,282.175 207.631,282.328 208.704 M318.100 208.396 C 315.635 209.899,316.848 212.210,319.509 211.080 C 323.693 209.302,326.015 210.291,325.533 213.646 C 325.386 214.672,324.221 215.365,321.800 215.868 C 320.457 216.147,320.180 216.375,320.075 217.286 C 319.941 218.449,320.072 218.516,323.336 218.955 C 325.406 219.233,326.000 219.820,326.000 221.587 C 326.000 224.201,322.449 225.429,319.600 223.800 C 318.214 223.008,317.301 223.064,316.816 223.971 C 315.039 227.291,324.363 228.964,327.804 225.942 C 330.007 224.009,330.200 220.232,328.194 218.330 C 326.979 217.177,326.979 217.161,328.200 215.362 C 329.845 212.937,329.324 209.759,327.035 208.259 C 325.390 207.182,325.307 207.509,326.894 208.817 C 329.188 210.708,329.324 214.278,327.175 216.222 C 326.387 216.936,326.391 216.952,327.622 218.222 C 332.497 223.252,325.121 229.788,318.525 226.283 C 315.884 224.879,316.645 223.023,319.392 224.171 C 323.827 226.024,327.828 223.848,326.386 220.367 C 325.840 219.048,325.252 218.748,322.600 218.436 C 319.226 218.038,319.819 216.588,323.672 215.814 C 325.274 215.492,326.000 214.541,326.000 212.766 C 326.000 209.860,323.030 208.904,319.383 210.635 C 318.147 211.221,317.871 211.241,317.569 210.763 C 316.923 209.743,317.180 209.299,318.900 208.464 C 319.835 208.011,320.330 207.632,320.000 207.621 C 319.670 207.611,318.815 207.960,318.100 208.396 M344.270 208.643 C 346.738 210.485,345.678 211.641,342.666 210.392 C 338.972 208.861,335.600 211.196,335.600 215.285 C 335.600 216.620,335.761 216.638,338.169 215.573 C 344.293 212.864,349.032 222.473,343.394 226.167 C 336.786 230.497,330.213 221.587,333.517 212.778 C 335.318 207.973,340.635 205.929,344.270 208.643 M358.406 208.500 C 362.557 211.321,362.755 223.108,358.702 226.133 C 353.696 229.871,349.000 225.645,349.000 217.400 C 349.000 209.111,353.308 205.035,358.406 208.500 M148.128 209.422 C 145.544 210.554,143.962 213.796,144.060 217.760 L 144.121 220.200 144.374 217.190 C 144.943 210.443,148.879 207.662,154.290 210.181 C 155.816 210.891,156.455 211.025,156.655 210.677 C 156.805 210.415,156.794 210.320,156.631 210.467 C 156.467 210.613,155.467 210.298,154.409 209.767 C 152.262 208.688,150.077 208.569,148.128 209.422 M287.739 209.814 C 287.597 210.184,287.367 211.045,287.227 211.728 C 287.047 212.612,286.689 213.037,285.989 213.203 C 284.530 213.547,284.525 214.626,285.980 215.133 L 287.200 215.558 287.202 219.279 C 287.206 225.452,288.144 227.302,291.304 227.366 C 292.771 227.395,293.017 227.278,293.128 226.500 C 293.220 225.848,293.055 225.602,292.528 225.606 C 291.916 225.611,291.895 225.673,292.397 225.989 C 293.433 226.645,292.291 227.291,290.642 226.982 C 288.376 226.556,288.000 225.669,288.000 220.744 C 288.000 215.867,287.856 215.278,286.545 214.779 C 285.286 214.300,285.354 213.868,286.773 213.333 C 287.745 212.966,287.968 212.630,288.073 211.376 C 288.248 209.286,289.200 209.042,289.200 211.087 C 289.200 212.995,289.757 213.600,291.513 213.600 C 293.310 213.600,293.024 214.553,291.173 214.733 C 289.324 214.912,289.213 215.199,289.206 219.811 C 289.200 224.053,289.732 225.649,291.123 225.554 C 291.737 225.511,291.739 225.491,291.140 225.332 C 290.006 225.031,289.562 223.153,289.684 219.178 L 289.800 215.400 291.400 215.200 C 293.602 214.925,294.055 213.204,291.928 213.194 C 290.075 213.185,289.679 212.823,289.530 210.998 C 289.391 209.291,288.234 208.525,287.739 209.814 M354.103 210.012 C 351.893 210.900,350.713 215.720,351.546 220.452 C 352.643 226.678,357.842 226.511,358.885 220.216 C 359.972 213.653,357.606 208.603,354.103 210.012 M357.080 210.881 C 358.703 212.177,359.158 219.782,357.782 222.600 C 356.684 224.846,353.911 224.999,352.674 222.881 C 351.726 221.258,351.524 215.053,352.343 212.696 C 353.141 210.395,355.392 209.533,357.080 210.881 M178.200 213.704 C 177.320 214.191,176.525 214.637,176.433 214.695 C 176.342 214.753,176.376 214.910,176.510 215.044 C 176.644 215.178,177.303 214.897,177.973 214.419 C 180.532 212.597,183.172 213.025,185.352 215.616 C 186.616 217.118,186.737 216.797,185.541 215.116 C 183.885 212.791,180.890 212.215,178.200 213.704 M193.000 213.708 C 190.358 215.186,188.490 220.835,189.906 223.062 C 190.068 223.316,190.200 222.115,190.200 220.393 C 190.200 213.528,197.152 210.449,200.319 215.911 C 200.793 216.730,201.186 217.158,201.191 216.862 C 201.242 213.843,196.218 211.908,193.000 213.708 M208.545 213.799 C 206.904 214.783,206.889 214.785,206.674 213.961 C 206.533 213.424,206.199 213.180,205.728 213.271 C 205.058 213.400,205.000 213.952,205.000 220.205 L 205.000 227.000 206.000 227.000 L 207.000 227.000 207.200 222.131 C 207.430 216.541,208.093 215.200,210.627 215.200 C 211.965 215.200,212.563 214.491,212.145 213.400 C 211.807 212.520,210.424 212.673,208.545 213.799 M216.357 213.575 C 212.383 215.739,213.602 219.882,218.600 221.196 C 222.989 222.350,223.139 225.504,218.811 225.646 C 218.035 225.672,217.733 225.779,218.140 225.883 C 222.777 227.078,223.938 222.312,219.325 221.020 C 214.379 219.635,212.988 217.350,215.540 214.799 C 217.416 212.922,222.371 212.818,223.071 214.640 C 223.426 215.565,223.108 215.612,221.173 214.916 C 218.428 213.929,216.000 214.891,216.000 216.967 C 216.000 217.851,217.100 219.200,217.820 219.200 C 218.017 219.200,217.778 218.920,217.289 218.577 C 216.241 217.843,216.127 216.325,217.062 215.549 C 217.852 214.893,221.046 214.886,221.699 215.539 C 222.452 216.292,223.600 216.093,223.600 215.209 C 223.600 213.221,218.939 212.170,216.357 213.575 M230.230 213.707 C 226.036 216.093,225.627 223.571,229.539 226.357 C 231.871 228.017,237.003 227.752,238.152 225.911 C 238.812 224.854,237.902 224.108,236.708 224.726 C 236.209 224.985,235.080 225.359,234.200 225.558 C 233.122 225.802,232.927 225.927,233.600 225.942 C 234.150 225.955,235.277 225.723,236.105 225.428 C 237.772 224.833,238.549 225.311,237.345 226.191 C 233.083 229.307,227.187 225.761,227.207 220.092 C 227.234 212.182,238.263 210.796,238.381 218.687 L 238.400 219.975 233.700 220.087 C 229.012 220.200,229.000 220.202,228.907 221.200 C 228.825 222.079,228.854 222.103,229.146 221.400 C 229.443 220.684,229.959 220.579,234.039 220.400 L 238.600 220.200 238.709 218.800 C 239.055 214.378,234.188 211.454,230.230 213.707 M245.380 213.363 C 240.639 215.428,239.822 223.425,244.045 226.432 C 246.381 228.095,251.529 227.694,252.259 225.791 C 252.710 224.616,251.765 224.215,250.320 224.970 C 249.147 225.582,249.369 225.630,251.150 225.149 C 252.178 224.871,252.023 225.852,250.949 226.428 C 246.484 228.817,241.882 225.771,241.882 220.427 C 241.882 214.736,246.764 211.387,251.007 214.168 C 252.521 215.160,251.829 215.685,249.983 214.946 C 246.481 213.545,243.200 216.098,243.200 220.223 C 243.200 222.689,244.933 225.620,246.370 225.584 C 246.761 225.574,246.604 225.353,245.953 224.999 C 240.792 222.194,244.360 213.574,249.902 215.455 C 252.860 216.460,253.460 214.621,250.569 213.413 C 248.789 212.669,247.011 212.652,245.380 213.363 M274.652 213.624 C 273.171 214.417,273.086 214.421,272.321 213.729 C 271.557 213.037,271.507 213.039,270.964 213.782 C 270.118 214.939,270.302 215.550,271.161 214.433 L 271.904 213.467 272.179 214.333 C 272.530 215.441,272.836 215.423,274.659 214.186 C 276.244 213.110,277.400 213.029,277.400 213.993 C 277.400 214.358,276.766 214.700,275.698 214.911 C 273.295 215.386,272.786 216.558,272.505 222.248 C 272.168 229.101,271.266 228.621,271.099 221.500 L 270.975 216.200 270.887 221.700 L 270.800 227.200 271.800 227.200 C 272.784 227.200,272.800 227.147,272.824 223.900 C 272.871 217.354,273.755 215.200,276.395 215.200 C 277.843 215.200,278.698 214.241,278.000 213.400 C 277.326 212.588,276.477 212.645,274.652 213.624 M142.252 214.100 C 141.932 215.295,141.985 220.020,142.328 220.885 C 142.478 221.262,142.600 219.687,142.600 217.385 C 142.600 212.801,142.600 212.802,142.252 214.100 M158.983 213.701 C 158.877 213.976,159.955 217.081,161.377 220.601 C 162.800 224.120,163.973 226.820,163.983 226.600 C 163.994 226.380,162.900 223.447,161.552 220.083 C 160.204 216.719,159.205 213.861,159.333 213.734 C 159.990 213.077,160.801 214.360,162.567 218.853 C 164.773 224.463,164.984 224.805,165.745 223.983 C 166.334 223.347,168.525 217.992,168.292 217.758 C 168.213 217.679,167.620 218.903,166.974 220.477 C 165.366 224.399,165.172 224.323,163.011 218.917 C 160.744 213.246,159.684 211.873,158.983 213.701 M169.614 213.974 C 168.960 215.196,169.130 215.375,169.966 214.344 C 171.488 212.466,171.305 214.101,169.479 218.679 C 168.454 221.248,167.677 223.410,167.752 223.485 C 167.982 223.716,171.600 214.756,171.600 213.954 C 171.600 212.944,170.157 212.958,169.614 213.974 M211.800 213.995 C 211.800 214.322,211.440 214.644,211.000 214.710 C 207.483 215.242,207.060 215.974,206.800 221.977 C 206.627 225.960,206.504 226.610,205.900 226.725 C 204.913 226.913,204.815 214.233,205.800 213.855 C 206.158 213.718,206.400 213.852,206.400 214.189 C 206.400 215.223,207.131 215.223,208.654 214.189 C 210.255 213.103,211.800 213.007,211.800 213.995 M255.467 213.467 C 254.917 214.016,255.181 223.581,255.786 225.027 C 256.748 227.331,259.962 228.261,262.474 226.962 C 263.486 226.438,263.875 226.412,264.627 226.815 C 266.623 227.883,266.801 227.366,266.794 220.513 C 266.787 213.941,266.605 213.026,265.352 213.265 C 264.678 213.393,264.579 213.917,264.400 218.294 C 264.179 223.701,263.840 224.438,261.090 225.496 L 259.800 225.993 261.200 225.750 C 264.038 225.258,264.800 223.625,264.800 218.036 C 264.800 214.061,265.182 212.872,265.980 214.363 C 267.483 217.171,266.165 228.408,264.586 226.249 C 264.121 225.612,263.977 225.625,262.426 226.433 C 260.368 227.506,258.291 227.273,256.822 225.804 C 255.558 224.541,255.180 213.800,256.400 213.800 C 256.893 213.800,257.036 214.738,257.200 219.041 C 257.403 224.366,257.761 225.600,259.103 225.600 C 259.498 225.600,259.343 225.313,258.654 224.771 C 257.621 223.959,257.600 223.846,257.600 219.204 C 257.600 213.517,257.008 211.925,255.467 213.467 M280.577 213.716 C 279.843 215.628,280.626 227.004,281.500 227.128 C 281.995 227.198,282.400 227.080,282.400 226.865 C 282.400 226.651,282.035 226.570,281.590 226.687 C 280.625 226.939,280.502 214.031,281.466 213.711 C 281.723 213.626,282.017 213.881,282.120 214.278 C 282.268 214.848,282.317 214.811,282.354 214.100 C 282.405 213.099,280.936 212.781,280.577 213.716 M294.800 213.712 C 294.800 213.994,295.971 217.146,297.403 220.717 C 300.517 228.483,300.291 230.138,295.900 231.722 C 295.053 232.028,295.006 232.541,295.765 233.171 C 297.912 234.953,300.664 231.493,304.407 222.305 C 307.902 213.729,308.067 213.078,306.700 213.272 C 305.956 213.378,305.447 214.268,303.768 218.400 C 301.276 224.533,301.126 224.548,298.979 218.882 C 298.038 216.397,297.050 214.102,296.785 213.782 C 296.189 213.063,294.800 213.015,294.800 213.712 M298.587 219.028 C 301.248 225.925,301.230 225.926,304.034 218.864 C 305.878 214.222,306.351 213.391,306.862 213.902 C 307.241 214.281,301.952 227.800,300.529 230.090 C 299.555 231.657,298.310 232.648,297.041 232.868 C 295.733 233.095,295.934 232.218,297.366 231.446 C 298.158 231.020,299.117 229.992,299.635 229.016 L 300.532 227.325 297.906 220.762 C 296.461 217.153,295.357 214.073,295.452 213.917 C 295.963 213.084,296.854 214.537,298.587 219.028 M178.552 215.164 C 177.053 216.078,176.380 217.809,176.457 220.560 C 176.511 222.524,176.524 222.500,176.789 219.898 C 177.318 214.707,182.265 212.946,184.156 217.275 C 184.474 218.004,184.749 218.325,184.767 217.989 C 184.902 215.473,180.973 213.687,178.552 215.164 M193.538 215.302 C 190.520 217.853,191.376 219.200,196.014 219.200 C 199.712 219.200,200.379 218.666,199.346 216.534 C 198.282 214.336,195.403 213.725,193.538 215.302 M230.431 215.631 C 227.929 218.132,228.813 219.200,233.384 219.200 C 236.870 219.200,237.588 218.701,236.808 216.820 C 235.708 214.163,232.497 213.564,230.431 215.631 M197.622 215.212 C 198.493 215.678,199.699 217.768,199.317 218.149 C 198.895 218.572,192.464 218.428,192.194 217.990 C 191.297 216.539,195.798 214.236,197.622 215.212 M235.357 215.700 C 237.493 217.619,237.002 218.187,233.100 218.316 C 229.076 218.448,228.489 217.806,230.831 215.836 C 232.351 214.556,234.028 214.506,235.357 215.700 M186.583 220.151 C 186.592 221.810,186.722 222.859,186.872 222.483 C 187.230 221.583,187.220 218.793,186.855 217.867 C 186.696 217.464,186.574 218.492,186.583 220.151 M337.169 218.369 C 335.628 219.911,335.548 222.195,336.981 223.742 C 338.321 225.188,340.812 225.224,342.218 223.818 C 344.433 221.603,342.691 217.200,339.600 217.200 C 338.739 217.200,337.967 217.571,337.169 218.369 M201.178 218.600 L 201.000 219.800 196.400 220.000 L 191.800 220.200 191.676 221.273 C 191.401 223.655,193.891 226.079,196.487 225.957 C 197.009 225.933,196.680 225.753,195.719 225.537 C 193.695 225.083,192.000 223.275,192.000 221.569 L 192.000 220.400 196.300 220.394 C 201.175 220.387,201.728 220.192,201.510 218.557 L 201.357 217.400 201.178 218.600 M341.581 218.304 C 342.890 219.364,343.108 221.906,342.009 223.300 C 340.799 224.835,338.418 224.858,337.229 223.346 C 334.750 220.195,338.521 215.826,341.581 218.304 M184.750 220.730 C 184.222 225.449,179.416 227.355,177.400 223.645 C 177.088 223.070,176.825 222.801,176.816 223.046 C 176.782 223.984,178.485 225.580,179.778 225.822 C 182.829 226.395,185.476 223.494,185.125 219.964 C 185.011 218.821,184.950 218.945,184.750 220.730 M72.600 220.000 C 71.940 220.437,71.544 220.796,71.720 220.797 C 72.159 220.801,74.400 219.624,74.400 219.390 C 74.400 219.010,73.774 219.222,72.600 220.000 M220.285 219.967 C 223.916 221.204,224.906 223.834,222.568 226.030 C 220.781 227.708,214.400 227.171,214.400 225.343 C 214.400 224.901,214.608 224.800,215.100 225.003 C 216.554 225.601,217.342 225.617,216.054 225.022 C 214.252 224.189,213.921 224.236,214.072 225.300 C 214.347 227.238,218.861 228.254,221.781 227.034 C 226.052 225.249,223.866 219.120,219.000 219.237 C 218.560 219.247,219.138 219.576,220.285 219.967 M144.411 220.513 C 144.349 222.247,147.389 225.600,149.023 225.600 C 149.449 225.600,149.012 225.214,148.002 224.700 C 146.716 224.045,145.988 223.310,145.329 222.000 C 144.830 221.010,144.417 220.341,144.411 220.513 M142.802 222.207 C 142.780 226.620,152.030 229.209,156.174 225.949 C 157.801 224.669,156.926 223.308,155.087 224.258 C 154.382 224.623,153.354 225.059,152.803 225.226 C 151.877 225.508,151.868 225.534,152.677 225.566 C 153.160 225.585,154.173 225.235,154.930 224.788 C 156.134 224.078,156.335 224.054,156.544 224.599 C 156.850 225.395,154.847 226.654,152.701 227.017 C 149.001 227.642,145.453 226.176,143.714 223.303 C 143.214 222.477,142.803 221.983,142.802 222.207 M229.225 222.845 C 229.192 223.684,231.121 225.609,231.955 225.568 C 232.498 225.542,232.505 225.502,232.000 225.316 C 231.081 224.978,229.942 223.889,229.578 223.000 C 229.333 222.401,229.244 222.362,229.225 222.845 M190.400 224.345 C 190.400 226.909,197.384 228.479,200.300 226.571 C 202.260 225.288,201.029 223.994,198.777 224.971 C 197.781 225.403,197.627 225.573,198.220 225.584 C 198.671 225.593,199.256 225.384,199.520 225.120 C 199.892 224.748,200.107 224.747,200.479 225.119 C 201.604 226.244,197.528 227.523,194.581 226.970 C 193.711 226.807,192.574 226.147,191.762 225.335 C 191.013 224.586,190.400 224.141,190.400 224.345 M163.451 228.541 C 162.915 229.822,161.397 231.182,159.900 231.722 C 159.028 232.037,158.987 233.033,159.833 233.357 C 160.864 233.753,161.003 233.637,160.200 233.050 C 159.484 232.526,159.504 232.469,160.624 231.858 C 162.552 230.806,163.160 230.194,163.801 228.659 C 164.136 227.857,164.321 227.200,164.211 227.200 C 164.101 227.200,163.759 227.803,163.451 228.541 M164.719 229.837 C 164.124 230.800,163.044 231.951,162.319 232.393 C 161.593 232.835,161.169 233.198,161.375 233.199 C 162.225 233.202,164.414 231.312,165.219 229.881 C 166.421 227.741,166.033 227.707,164.719 229.837 " stroke="none" fill="#848484" fill-rule="evenodd"/>
  </g>
</svg>